<!-- Generator: Adobe Illustrator 21.0.2, SVG Export Plug-In  -->
<svg version="1.1"
	 xmlns="http://www.w3.org/2000/svg" xmlns:xlink="http://www.w3.org/1999/xlink" xmlns:a="http://ns.adobe.com/AdobeSVGViewerExtensions/3.0/"
	 x="0px" y="0px" width="44.1px" height="44.1px" viewBox="0 0 44.1 44.1" style="enable-background:new 0 0 44.1 44.1;"
	 xml:space="preserve">
<style type="text/css">
	.st0{fill:#CBCBCB;}
</style>
<defs>
</defs>
<g>
	<path class="st0" d="M41.3,0H2.8C1.2,0,0,1.2,0,2.8V34c0,1.5,1.2,2.8,2.8,2.8h22v-1.8h-22c-0.5,0-0.9-0.4-0.9-0.9V2.8
		c0-0.5,0.4-0.9,0.9-0.9h38.6c0.5,0,0.9,0.4,0.9,0.9V34c0,0.5-0.4,0.9-0.9,0.9h-1.8v1.8h1.8c1.5,0,2.8-1.2,2.8-2.8V2.8
		C44.1,1.2,42.9,0,41.3,0z"/>
	<path class="st0" d="M39.5,18.4v-8.3c0-0.5-0.4-0.9-0.9-0.9c-2,0-3.7-1.6-3.7-3.7c0-0.5-0.4-0.9-0.9-0.9H10.1
		C9.6,4.6,9.2,5,9.2,5.5c0,2-1.6,3.7-3.7,3.7c-0.5,0-0.9,0.4-0.9,0.9v16.5c0,0.5,0.4,0.9,0.9,0.9c2,0,3.7,1.6,3.7,3.7
		c0,0.5,0.4,0.9,0.9,0.9H22v-1.8H10.9c-0.4-2.3-2.2-4.1-4.5-4.5V10.9c2.3-0.4,4.1-2.2,4.5-4.5h22.2c0.4,2.3,2.2,4.1,4.5,4.5v7.4
		H39.5z"/>
	<path class="st0" d="M40.4,27.6c0-4.6-3.7-8.3-8.3-8.3s-8.3,3.7-8.3,8.3c0,2.4,1.1,4.6,2.8,6.2v9.5c0,0.2,0.1,0.4,0.2,0.6
		c0.3,0.4,0.9,0.5,1.3,0.1l4-3.2l4,3.2c0.2,0.1,0.4,0.2,0.6,0.2c0.5,0,0.9-0.4,0.9-0.9v-9.5C39.4,32.2,40.4,30,40.4,27.6z
		 M25.7,27.6c0-3.6,2.9-6.4,6.4-6.4c3.5,0,6.4,2.9,6.4,6.4c0,3.6-2.9,6.4-6.4,6.4S25.7,31.1,25.7,27.6z M35.8,41.3l-3.1-2.5
		c-0.3-0.3-0.8-0.3-1.1,0l-3.1,2.5V35c1.1,0.6,2.4,0.9,3.7,0.9c1.3,0,2.6-0.3,3.7-0.9V41.3z"/>
	<path class="st0" d="M32.2,13.8v-3.7c0-0.5-0.4-0.9-0.9-0.9H12.9c-0.5,0-0.9,0.4-0.9,0.9v3.7c0,0.5,0.4,0.9,0.9,0.9h18.4
		C31.7,14.7,32.2,14.3,32.2,13.8z M30.3,12.9H13.8V11h16.5V12.9z"/>
	<rect x="11" y="21.1" class="st0" width="11" height="1.8"/>
	<path class="st0" d="M32.2,32.2c2.5,0,4.6-2.1,4.6-4.6c0-2.5-2.1-4.6-4.6-4.6c-2.5,0-4.6,2.1-4.6,4.6
		C27.6,30.1,29.6,32.2,32.2,32.2z M32.2,24.8c1.5,0,2.8,1.2,2.8,2.8s-1.2,2.8-2.8,2.8s-2.8-1.2-2.8-2.8S30.6,24.8,32.2,24.8z"/>
</g>
</svg>