<!-- Generator: Adobe Illustrator 21.0.2, SVG Export Plug-In  -->
<svg version="1.1"
	 xmlns="http://www.w3.org/2000/svg" xmlns:xlink="http://www.w3.org/1999/xlink" xmlns:a="http://ns.adobe.com/AdobeSVGViewerExtensions/3.0/"
	 x="0px" y="0px" width="43.6px" height="40.2px" viewBox="0 0 43.6 40.2" style="enable-background:new 0 0 43.6 40.2;"
	 xml:space="preserve">
<style type="text/css">
	.st0{fill:#7F7F7F;}
</style>
<defs>
</defs>
<g>
	<path class="st0" d="M39.3,3.5h-3.1V0h-4.6v3.5H12.1V0H7.5v3.5H4.3C1.9,3.5,0,5.5,0,7.9v4.6v4v19.3c0,2.4,1.9,4.3,4.3,4.3h35
		c2.4,0,4.3-1.9,4.3-4.3V16.5v-4.1V7.9C43.6,5.5,41.7,3.5,39.3,3.5z M39.5,35.9c0,0.1-0.1,0.3-0.3,0.3h-35C4.2,36.1,4,36,4,35.9
		V16.5h35.5V35.9z M4,12.4V7.9c0-0.1,0.1-0.3,0.3-0.3h3.2v2.9h4.6V7.6h19.5v2.9h4.6V7.6h3.1c0.1,0,0.3,0.1,0.3,0.3v4.6H4z"/>
	<rect x="8.2" y="20.6" class="st0" width="4.7" height="4.7"/>
	<rect x="15.5" y="20.6" class="st0" width="4.7" height="4.7"/>
	<rect x="22.9" y="20.6" class="st0" width="4.7" height="4.7"/>
	<rect x="30.2" y="20.6" class="st0" width="4.7" height="4.7"/>
</g>
</svg>