<!-- Generator: Adobe Illustrator 21.0.2, SVG Export Plug-In  -->
<svg version="1.1"
	 xmlns="http://www.w3.org/2000/svg" xmlns:xlink="http://www.w3.org/1999/xlink" xmlns:a="http://ns.adobe.com/AdobeSVGViewerExtensions/3.0/"
	 x="0px" y="0px" width="36.5px" height="36.4px" viewBox="0 0 36.5 36.4" style="enable-background:new 0 0 36.5 36.4;"
	 xml:space="preserve">
<style type="text/css">
	.st0{fill:#615d5b;}
</style>
<defs>
</defs>
<g>
	<path class="st0" d="M34.1,7.1h-2.7c0.4-0.6,0.6-1.2,0.6-1.8c0.2-2.1-0.9-4-2.8-4.8c-1.7-0.8-3.7-0.5-5.1,0.8l-3.4,3
		c-0.7-0.7-1.6-1.2-2.6-1.2c-1,0-2,0.5-2.6,1.2l-3.4-3C10.8,0,8.9-0.4,7.2,0.4c-1.9,0.8-3,2.7-2.8,4.8C4.4,5.9,4.7,6.5,5,7.1H2.4
		C1.1,7.1,0,8.1,0,9.5V13c0,0.7,0.5,1.2,1.2,1.2h34.1c0.7,0,1.2-0.5,1.2-1.2V9.5C36.5,8.1,35.4,7.1,34.1,7.1z M25.8,3
		c0.6-0.6,1.5-0.8,2.3-0.6c1.1,0.3,1.8,1.3,1.7,2.5c-0.1,1.2-1.2,2.2-2.4,2.2h-5.5V6.7c0,0,0,0,0,0C22.7,5.8,24.7,4,25.8,3z
		 M6.8,4.2C7,3.5,7.5,2.9,8.1,2.6C9,2.2,9.9,2.3,10.7,3l4,3.6c0,0,0,0,0,0v0.4H9.1C7.6,7.1,6.4,5.7,6.8,4.2z"/>
	<path class="st0" d="M2.4,34c0,1.3,1.1,2.4,2.4,2.4h11.1V16.6H2.4V34z"/>
	<path class="st0" d="M20.6,36.4h11.1c1.3,0,2.4-1.1,2.4-2.4V16.6H20.6V36.4z"/>
</g>
</svg>