<!-- Generator: Adobe Illustrator 21.0.2, SVG Export Plug-In  -->
<svg version="1.1"
	 xmlns="http://www.w3.org/2000/svg" xmlns:xlink="http://www.w3.org/1999/xlink" xmlns:a="http://ns.adobe.com/AdobeSVGViewerExtensions/3.0/"
	 x="0px" y="0px" width="72.1px" height="85.8px" viewBox="0 0 72.1 85.8" style="enable-background:new 0 0 72.1 85.8;"
	 xml:space="preserve">
<style type="text/css">
	.st0{clip-path:url(#SVGID_2_);fill:#D1D3D4;}
	.st1{clip-path:url(#SVGID_4_);fill:#D1D3D4;}
</style>
<defs>
</defs>
<g>
	<defs>
		<rect id="SVGID_1_" x="0" y="0" width="72.1" height="85.8"/>
	</defs>
	<clipPath id="SVGID_2_">
		<use xlink:href="#SVGID_1_"  style="overflow:visible;"/>
	</clipPath>
	<path class="st0" d="M56.3,0.3L56.8,0C56.6,0.1,56.5,0.2,56.3,0.3"/>
	<path class="st0" d="M71.4,25.2L36.5,0.5c-0.2-0.1-0.2-0.2-0.5-0.2c-0.2,0-0.3,0-0.4,0.1h0l-0.1,0.1L16.8,13.8
		c-0.6,0.4-0.6,0.2-0.6-0.7V10c0-0.5-0.2-0.8-0.6-0.8l-9.7,0c-0.5,0-0.7,0.3-0.7,0.8v10.7c0,0.5,0.2,1.1-0.3,1.6l-4.2,2.9
		C-0.1,25.7,0,26.3,0,27l0,4.2l0,44.2l0,9.6c0,0.5,0.4,0.8,0.8,0.8h70.3c0.5,0,0.9-0.4,0.9-0.8l0-9.6h0l0.1-44.2V27
		C72.1,26.3,72.2,25.7,71.4,25.2 M61.9,32.2v42.3c0,0.5-0.4,0.9-0.9,0.9h-50c-0.5,0-0.8-0.4-0.9-0.8V32.1c0-0.2,0-0.6,0.2-0.9
		c0.1-0.3,0.4-0.6,0.8-0.9l24.3-16.7c0.1-0.1,0.2-0.2,0.3-0.2c0.1,0,0.2,0,0.3,0c0.1,0,0.3,0,0.4,0.1c0,0,0,0,0,0l24.4,16.8
		c0.4,0.3,0.7,0.6,0.8,0.9C61.9,31.6,61.9,32,61.9,32.2"/>
</g>
</svg>