<!-- Generator: Adobe Illustrator 21.0.2, SVG Export Plug-In  -->
<svg version="1.1"
	 xmlns="http://www.w3.org/2000/svg" xmlns:xlink="http://www.w3.org/1999/xlink" xmlns:a="http://ns.adobe.com/AdobeSVGViewerExtensions/3.0/"
	 x="0px" y="0px" width="33.9px" height="43.7px" viewBox="0 0 33.9 43.7" style="enable-background:new 0 0 33.9 43.7;"
	 xml:space="preserve">
<style type="text/css">
	
		.st0{clip-path:url(#SVGID_2_);fill:none;stroke:#FFFFFF;stroke-width:1.5;stroke-linecap:round;stroke-linejoin:round;stroke-miterlimit:10;}
	
		.st1{clip-path:url(#SVGID_4_);fill:none;stroke:#FFFFFF;stroke-width:1.5;stroke-linecap:round;stroke-linejoin:round;stroke-miterlimit:10;}
</style>
<defs>
</defs>
<g>
	<defs>
		<rect id="SVGID_1_" x="0" y="0" width="33.9" height="43.7"/>
	</defs>
	<clipPath id="SVGID_2_">
		<use xlink:href="#SVGID_1_"  style="overflow:visible;"/>
	</clipPath>
	<path class="st0" d="M21.4,40.5h-17c-2,0-3.7-1.7-3.7-3.7V4.4c0-2,1.7-3.7,3.7-3.7h22.5c2,0,3.7,1.7,3.7,3.7v20.2"/>
	<rect x="22.2" y="34.3" class="st0" width="11" height="8.7"/>
	<path class="st0" d="M24.3,33.3c0-2.6,1.5-4.7,3.3-4.7c1.8,0,3.3,2.1,3.3,4.7"/>
	<polyline class="st0" points="6.8,10.1 8.4,11.9 11.8,7.4 	"/>
	<line class="st0" x1="13.8" y1="10.6" x2="23.9" y2="10.6"/>
	<polyline class="st0" points="6.8,18.1 8.4,19.9 11.8,15.4 	"/>
	<line class="st0" x1="13.8" y1="18.6" x2="23.9" y2="18.6"/>
	<polyline class="st0" points="6.8,26.1 8.4,27.9 11.8,23.4 	"/>
	<line class="st0" x1="13.8" y1="26.6" x2="23.9" y2="26.6"/>
</g>
</svg>