<!-- Generator: Adobe Illustrator 21.0.2, SVG Export Plug-In  -->
<svg version="1.1"
	 xmlns="http://www.w3.org/2000/svg" xmlns:xlink="http://www.w3.org/1999/xlink" xmlns:a="http://ns.adobe.com/AdobeSVGViewerExtensions/3.0/"
	 x="0px" y="0px" width="39.5px" height="36.4px" viewBox="0 0 39.5 36.4" style="enable-background:new 0 0 39.5 36.4;"
	 xml:space="preserve">
<style type="text/css">
	.st0{fill:none;stroke:#FFFFFF;stroke-width:1.5;stroke-linecap:round;stroke-linejoin:round;stroke-miterlimit:10;}
	
		.st1{clip-path:url(#SVGID_2_);fill:none;stroke:#FFFFFF;stroke-width:1.5;stroke-linecap:round;stroke-linejoin:round;stroke-miterlimit:10;}
	
		.st2{clip-path:url(#SVGID_4_);fill:none;stroke:#FFFFFF;stroke-width:1.5;stroke-linecap:round;stroke-linejoin:round;stroke-miterlimit:10;}
</style>
<defs>
</defs>
<rect x="9.5" y="21.4" class="st0" width="9" height="5.2"/>
<rect x="18.4" y="21.4" class="st0" width="9" height="5.2"/>
<polygon class="st0" points="14,21.4 9.4,21.5 9.4,16.2 14,16.2 "/>
<rect x="14" y="16.2" class="st0" width="9" height="5.2"/>
<rect x="22.9" y="16.2" class="st0" width="9" height="5.2"/>
<rect x="9.4" y="10.9" class="st0" width="9" height="5.2"/>
<rect x="18.4" y="10.9" class="st0" width="9" height="5.2"/>
<rect x="27.4" y="21.4" class="st0" width="9" height="5.2"/>
<g>
	<defs>
		<rect id="SVGID_1_" width="39.5" height="36.4"/>
	</defs>
	<clipPath id="SVGID_2_">
		<use xlink:href="#SVGID_1_"  style="overflow:visible;"/>
	</clipPath>
	<polyline class="st1" points="3,1.5 3,33.5 38.5,33.5 	"/>
	<polyline class="st1" points="0.8,3.3 3,0.8 5.1,3.2 	"/>
	<polyline class="st1" points="36.3,31.3 38.8,33.5 36.3,35.7 	"/>
</g>
</svg>