<!-- Generator: Adobe Illustrator 21.0.2, SVG Export Plug-In  -->
<svg version="1.1"
	 xmlns="http://www.w3.org/2000/svg" xmlns:xlink="http://www.w3.org/1999/xlink" xmlns:a="http://ns.adobe.com/AdobeSVGViewerExtensions/3.0/"
	 x="0px" y="0px" width="46.8px" height="38.7px" viewBox="0 0 46.8 38.7" style="enable-background:new 0 0 46.8 38.7;"
	 xml:space="preserve">
<style type="text/css">
	
		.st0{clip-path:url(#SVGID_2_);fill:none;stroke:#FFFFFF;stroke-width:1.5;stroke-linecap:round;stroke-linejoin:round;stroke-miterlimit:10;}
	
		.st1{clip-path:url(#SVGID_4_);fill:none;stroke:#FFFFFF;stroke-width:1.5;stroke-linecap:round;stroke-linejoin:round;stroke-miterlimit:10;}
</style>
<defs>
</defs>
<g>
	<defs>
		<rect id="SVGID_1_" width="46.8" height="38.7"/>
	</defs>
	<clipPath id="SVGID_2_">
		<use xlink:href="#SVGID_1_"  style="overflow:visible;"/>
	</clipPath>
	<line class="st0" x1="1.7" y1="38" x2="45.1" y2="38"/>
	<line class="st0" x1="7.3" y1="37.4" x2="7.3" y2="13.1"/>
	<line class="st0" x1="39.4" y1="37.4" x2="39.4" y2="13.1"/>
	<polyline class="st0" points="0.8,16.9 23.2,0.8 46,16.9 	"/>
	<path class="st0" d="M16.1,21.5c0,0,0.3-2.1,2.4-2.1c2,0,2.1,1.4,2.1,2.1c0,1.4-1.6,2.9-2.4,3.8c-1.7,2.1-2.7,3-2.7,3h5.6"/>
	<polyline class="st0" points="24.6,19.3 21.9,24.9 25.7,24.9 	"/>
	<line class="st0" x1="26.5" y1="22.1" x2="26.5" y2="28.4"/>
	<circle class="st0" cx="30.8" cy="19.1" r="2.3"/>
	<polyline class="st0" points="30.8,6.3 30.8,2 36.2,2 36.2,9.7 	"/>
</g>
</svg>