<!-- Generator: Adobe Illustrator 21.0.2, SVG Export Plug-In  -->
<svg version="1.1"
	 xmlns="http://www.w3.org/2000/svg" xmlns:xlink="http://www.w3.org/1999/xlink" xmlns:a="http://ns.adobe.com/AdobeSVGViewerExtensions/3.0/"
	 x="0px" y="0px" width="266.6px" height="138.5px" viewBox="0 0 266.6 138.5" style="enable-background:new 0 0 266.6 138.5;"
	 xml:space="preserve">
<style type="text/css">
	.st0{fill:#FFFFFF;}
</style>
<defs>
</defs>
<g id="Слой_1_2_">
	<g>
		<path class="st0" d="M83.2,69.4c0-23,18.2-38.8,41.7-38.8c23.6,0,41.7,15.7,41.7,38.8c0,23-18.2,38.8-41.7,38.8
			C101.4,108.1,83.2,92.4,83.2,69.4z M143.3,69.4c0-10.4-7.2-18.8-18.3-18.8s-18.3,8.3-18.3,18.8c0,10.4,7.2,18.8,18.3,18.8
			C136.1,88.1,143.3,79.8,143.3,69.4z"/>
		<path class="st0" d="M242.9,106.8V61.7l-17,45.1h-10.3l-17-45.1v45.1h-23.1v-75h31.9l13.4,36l13.4-36h31.9v74.9L242.9,106.8
			L242.9,106.8z"/>
		<path class="st0" d="M34.1,31.8H21.8L0,46.8v60h34.2c23.9,0,41.7-13.6,41.7-37.5C75.9,45.3,58.1,31.8,34.1,31.8z M34.1,87h-11
			V51.6h11.1c12.3,0,18.3,7.5,18.3,17.6C52.5,78.7,45.6,87,34.1,87z"/>
	</g>
	<g>
		<path class="st0" d="M5.6,18.6c-1.9,0-3.1-0.3-4.5-1.1v-2.4c1.1,0.7,2.6,1.1,4,1.1c2.2,0,4.1-0.8,4.4-3.1h-6v-2.3h6
			C9.1,8.6,7.1,7.7,4.9,7.7c-1.2,0-2.6,0.4-3.7,1.1V6.4c1.2-0.8,2.6-1.1,4-1.1c3.5,0,7.1,2,7.1,6.8C12.2,16.7,8.7,18.6,5.6,18.6z"/>
		<path class="st0" d="M15.6,18.3V5.7h2.8v5h6.3v-5h2.8v12.5h-2.8v-5h-6.3v5L15.6,18.3L15.6,18.3z"/>
		<path class="st0" d="M37.2,5.4c5,0,6.7,4,5.9,7.7h-9.4c0.3,2.2,2.5,3.2,4.8,3.2c1.5,0,2.9-0.4,4-0.9v2.4c-1.1,0.5-2.7,0.9-4.5,0.9
			c-3.8,0-7.1-2.2-7.1-6.6C30.8,7.4,34.3,5.4,37.2,5.4z M37.3,7.7c-1.9,0-3.6,1.1-3.7,3.2h6.9C40.7,9.8,40.1,7.7,37.3,7.7z"/>
		<path class="st0" d="M53.9,5.4c3.8,0,6.2,3,6.2,6.6s-2.5,6.6-6.2,6.6c-2.2,0-3.7-1-4.5-2V24h-2.8V5.7h2.5v2
			C50,6.5,51.5,5.4,53.9,5.4z M53.3,7.8c-1.9,0-3.4,1.3-4,2.6v3.1c0.6,1.4,2.1,2.6,4,2.6c2.3,0,3.9-1.7,3.9-4.2S55.6,7.8,53.3,7.8z"
			/>
		<path class="st0" d="M63.4,18.3V5.7h9.4v2.5h-6.6v10.1C66.2,18.3,63.4,18.3,63.4,18.3z"/>
		<path class="st0" d="M81.3,5.4c3.5,0,6.8,2.3,6.8,6.6s-3.3,6.6-6.8,6.6s-6.8-2.3-6.8-6.6S77.8,5.4,81.3,5.4z M81.3,7.9
			c-2.4,0-4,1.6-4,4s1.6,4,4,4c2.3,0,3.9-1.6,3.9-4S83.6,7.9,81.3,7.9z"/>
		<path class="st0" d="M95.1,18.6c-1.9,0-3.1-0.3-4.5-1.1v-2.4c1.1,0.7,2.6,1.1,4,1.1c2.2,0,4.1-0.8,4.4-3.1h-6v-2.3h6
			c-0.4-2.2-2.4-3.1-4.6-3.1c-1.2,0-2.6,0.4-3.7,1.1V6.4c1.2-0.8,2.6-1.1,4-1.1c3.5,0,7.1,2,7.1,6.8C101.8,16.7,98.3,18.6,95.1,18.6
			z"/>
		<path class="st0" d="M111.6,24v-5.4c-4.2-0.1-7.3-2.6-7.3-6.6s3.1-6.5,7.3-6.6V0h2.7v5.4c4.2,0.1,7.3,2.6,7.3,6.6
			s-3.1,6.5-7.3,6.6V24H111.6z M111.6,16.2V7.7c-2.8,0.1-4.5,1.8-4.5,4.2S108.8,16.1,111.6,16.2z M114.3,16.2
			c2.8-0.1,4.5-1.8,4.5-4.2s-1.7-4.1-4.5-4.2V16.2z"/>
		<path class="st0" d="M131.4,24v-5.4c-4.2-0.1-7.3-2.6-7.3-6.6s3.1-6.5,7.3-6.6V0h2.7v5.4c4.2,0.1,7.3,2.6,7.3,6.6
			s-3.1,6.5-7.3,6.6V24H131.4z M131.4,16.2V7.7c-2.8,0.1-4.5,1.8-4.5,4.2S128.6,16.1,131.4,16.2z M134.2,16.2
			c2.8-0.1,4.5-1.8,4.5-4.2s-1.7-4.1-4.5-4.2V16.2z"/>
		<path class="st0" d="M150.4,5.4c5,0,6.7,4,5.9,7.7h-9.4c0.3,2.2,2.5,3.2,4.8,3.2c1.5,0,2.9-0.4,4-0.9v2.4
			c-1.1,0.5-2.7,0.9-4.5,0.9c-3.8,0-7.1-2.2-7.1-6.6C144,7.4,147.5,5.4,150.4,5.4z M150.5,7.7c-1.9,0-3.6,1.1-3.7,3.2h6.9
			C153.9,9.8,153.2,7.7,150.5,7.7z"/>
		<path class="st0" d="M159.7,18.3V5.7h2.8v5h2.1l3.6-5h3.2l-4.5,6.2l5,6.3h-3.2l-4.1-5.2h-2v5.2L159.7,18.3L159.7,18.3z"/>
		<path class="st0" d="M177.4,18.3V8.2h-4.3V5.7h11.4v2.5h-4.3v10.1C180.2,18.3,177.4,18.3,177.4,18.3z"/>
		<path class="st0" d="M187.3,18.3V5.7h2.8v8.2l6.7-8.2h2.4v12.5h-2.8V10l-6.7,8.2L187.3,18.3L187.3,18.3z"/>
		<path class="st0" d="M203.4,18.3V5.7h7.2c2.5,0,4,1.4,4,3.3c0,1.4-0.7,2.4-1.8,2.8c1.2,0.4,2.1,1.4,2.1,2.9c0,1.9-1.2,3.4-4.1,3.4
			h-7.4V18.3z M206.2,10.9h3.7c1,0,1.8-0.4,1.8-1.5c0-1.2-0.9-1.6-1.8-1.6h-3.7V10.9z M206.2,16.1h3.9c1.1,0,2-0.4,2-1.6
			c0-1.3-1-1.6-1.9-1.6h-3.9v3.2H206.2z"/>
		<path class="st0" d="M218.3,18.3V5.7h2.8v5h6.3v-5h2.8v12.5h-2.8v-5h-6.3v5L218.3,18.3L218.3,18.3z"/>
		<path class="st0" d="M234.4,18.3V5.7h2.8v4.2h3.4c3.2,0,5,1.8,5,4.2s-1.8,4.2-5,4.2C240.6,18.3,234.4,18.3,234.4,18.3z M237.1,16
			h2.9c1.6,0,2.7-0.7,2.7-2s-1-2-2.7-2h-2.9V16z M247.8,18.3V5.7h2.8v12.5L247.8,18.3L247.8,18.3z"/>
		<path class="st0" d="M254.7,18.3V5.7h2.8v8.2l6.7-8.2h2.4v12.5h-2.8V10l-6.7,8.2L254.7,18.3L254.7,18.3z M260.7,4
			c-1.4,0-2.7-0.3-3.8-1.1V0.6c1.3,0.8,2.5,1.1,3.8,1.1s2.5-0.3,3.8-1.1v2.3C263.3,3.7,262.1,4,260.7,4z"/>
	</g>
	<g>
		<path class="st0" d="M132.6,134.9v-13.8h13.6v13.8h-4v-10.5h-5.6v10.5H132.6z"/>
		<path class="st0" d="M157.2,120.7c4,0,7.6,2.5,7.6,7.3s-3.6,7.3-7.6,7.3s-7.6-2.5-7.6-7.3C149.5,123.1,153.2,120.7,157.2,120.7z
			 M157.2,124.2c-2.3,0-3.5,1.6-3.5,3.7s1.3,3.7,3.5,3.7c2.3,0,3.6-1.6,3.6-3.7S159.5,124.2,157.2,124.2z"/>
		<path class="st0" d="M166.7,138.5v-6.7h1.9c1.7-2.9,2.1-6.4,2-10.8H182v10.8h2.1v6.7h-3.7v-3.7h-10v3.7H166.7z M172.7,131.8h5.3
			v-7.7h-3.7C174.2,127.4,173.8,129.6,172.7,131.8z"/>
		<path class="st0" d="M194.4,134.9v-13.8h4v5.2h1.7l3.5-5.2h4.5l-4.8,6.8l5.2,7H204l-4-5.5h-1.6v5.5H194.4z"/>
		<path class="st0" d="M211.7,135.2c-0.6,0-1.4-0.1-2.2-0.4v-3.2c0.3,0.1,0.6,0.2,0.8,0.2c2.2,0,2.7-4.5,2.9-10.7h11.2v13.8h-4
			v-10.7h-3.5C216.6,130.5,215.5,135.2,211.7,135.2z"/>
		<path class="st0" d="M242.5,135.3c-3.4,0-6.6-2-7.3-5.7h-2.5v5.3h-4v-13.8h4v5.3h2.5c0.7-3.8,3.9-5.7,7.3-5.7c4,0,7.6,2.5,7.6,7.3
			C250.1,132.8,246.5,135.3,242.5,135.3z M242.5,131.9c2.4,0,3.6-1.8,3.6-3.9s-1.2-3.9-3.6-3.9s-3.5,1.8-3.5,3.9
			S240.1,131.9,242.5,131.9z"/>
		<path class="st0" d="M261.6,134.9v-4.3c-1.1,0.4-2.2,0.6-3.5,0.6c-3,0-5.4-1.6-5.4-5.2v-4.9h4v4.5c0,1.6,1,2.2,2.5,2.2
			c0.9,0,1.7-0.1,2.4-0.4v-6.3h4v13.8L261.6,134.9L261.6,134.9z"/>
	</g>
</g>
</svg>