<!-- Generator: Adobe Illustrator 21.0.2, SVG Export Plug-In  -->
<svg version="1.1"
	 xmlns="http://www.w3.org/2000/svg" xmlns:xlink="http://www.w3.org/1999/xlink" xmlns:a="http://ns.adobe.com/AdobeSVGViewerExtensions/3.0/"
	 x="0px" y="0px" width="388.4px" height="229.8px" viewBox="0 0 388.4 229.8" style="enable-background:new 0 0 388.4 229.8;"
	 xml:space="preserve">
<style type="text/css">
	.st0{fill:#C6152D;}
	.st1{clip-path:url(#SVGID_2_);fill:#FFFFFF;}
	.st2{clip-path:url(#SVGID_4_);fill:#FFFFFF;}
</style>
<defs>
</defs>
<rect class="st0" width="388.4" height="229.8"/>
<g>
	<defs>
		<rect id="SVGID_1_" width="388.4" height="229.8"/>
	</defs>
	<clipPath id="SVGID_2_">
		<use xlink:href="#SVGID_1_"  style="overflow:visible;"/>
	</clipPath>
	<path class="st1" d="M300.2,178.6c-1.2,1.3-2.4,2.2-4.4,2.2c-2.9,0-4.9-2.4-4.9-5.5c0-3.1,2-5.5,4.9-5.5c1.7,0,3,0.7,4.1,1.9
		l4.2-3.3c-1.8-2.2-4.3-3.8-8.2-3.8c-6.2,0-10.9,4.7-10.9,10.7c0,6.2,4.7,10.7,10.6,10.7c4.3,0,6.9-1.7,8.8-4.2L300.2,178.6z"/>
	<polygon class="st1" points="123.3,170 117.1,170 117.1,165 135.2,165 135.2,170 129,170 129,185.6 123.3,185.6 	"/>
	<polygon class="st1" points="180.5,165 186.2,165 186.2,172.7 193.5,172.7 193.5,165 199.2,165 199.2,185.6 193.5,185.6 
		193.5,177.8 186.2,177.8 186.2,185.6 180.5,185.6 	"/>
	<polygon class="st1" points="203.7,165 209,165 217.5,175.9 217.5,165 223.2,165 223.2,185.6 218.2,185.6 209.3,174.3 209.3,185.6 
		203.7,185.6 	"/>
	<path class="st1" d="M226.5,175.3c0-5.9,4.8-10.7,11.1-10.7c6.4,0,11.1,4.7,11.1,10.7c0,5.9-4.8,10.7-11.1,10.7
		C231.2,186,226.5,181.3,226.5,175.3 M242.9,175.3c0-3-2.1-5.6-5.3-5.6c-3.1,0-5.2,2.5-5.2,5.6c0,3,2.2,5.6,5.3,5.6
		C240.8,180.9,242.9,178.3,242.9,175.3"/>
	<polygon class="st1" points="252,165 257.3,165 265.8,175.9 265.8,165 271.5,165 271.5,185.6 266.5,185.6 257.7,174.3 257.7,185.6 
		252,185.6 	"/>
	<rect x="275.9" y="165" class="st1" width="5.7" height="20.6"/>
	<path class="st1" d="M305.9,175.3c0-5.9,4.8-10.7,11.1-10.7c6.4,0,11.1,4.7,11.1,10.7c0,5.9-4.8,10.7-11.1,10.7
		C310.6,186,305.9,181.3,305.9,175.3 M322.2,175.3c0-3-2.2-5.6-5.3-5.6c-3.1,0-5.2,2.5-5.2,5.6c0,3,2.2,5.6,5.3,5.6
		C320.2,180.9,322.2,178.3,322.2,175.3"/>
	<polygon class="st1" points="331.4,165 337.1,165 337.1,180.6 347.1,180.6 347.1,185.6 331.4,185.6 	"/>
	<path class="st1" d="M173,178.6c-1.2,1.3-2.4,2.2-4.4,2.2c-2.9,0-4.9-2.4-4.9-5.5c0-3.1,2-5.5,4.9-5.5c1.7,0,3,0.7,4.1,1.9l4.2-3.3
		c-1.8-2.2-4.3-3.8-8.2-3.8c-6.2,0-10.9,4.7-10.9,10.7c0,6.2,4.7,10.7,10.6,10.7c4.3,0,6.9-1.7,8.8-4.2L173,178.6z"/>
	<polygon class="st1" points="138.2,165 154.7,165 154.7,169.9 143.8,169.9 143.8,173 153.7,173 153.7,177.5 143.8,177.5 
		143.8,180.8 154.9,180.8 154.9,185.6 138.2,185.6 	"/>
	<path class="st1" d="M163.7,108.3c0-23.4,18.2-39.4,41.7-39.4c23.6,0,41.7,16,41.7,39.4s-18.2,39.4-41.7,39.4
		C181.9,147.8,163.7,131.7,163.7,108.3 M223.7,108.3c0-10.6-7.2-19.1-18.3-19.1c-11.1,0-18.3,8.5-18.3,19.1s7.2,19.1,18.3,19.1
		C216.5,127.4,223.7,118.9,223.7,108.3"/>
	<polygon class="st1" points="323.4,146.4 323.4,100.5 306.3,146.4 296,146.4 279,100.5 279,146.4 255.9,146.4 255.9,70.1 
		287.8,70.1 301.2,106.7 314.6,70.1 346.5,70.1 346.5,146.4 	"/>
	<path class="st1" d="M114.5,70.1h-12.3L80.5,85.4v61h34.2c23.9,0,41.7-13.8,41.7-38.2C156.4,83.8,138.6,70.1,114.5,70.1
		 M114.5,126.3h-11v-36h11.1c12.3,0,18.3,7.7,18.3,17.9C132.9,117.8,126.1,126.3,114.5,126.3"/>
	<path class="st1" d="M64,75.2l37-25.9c0.8-0.6,1.1-1.1,1.1-2.6l0.1-21.3c0-1.4,0-2.2-1.9-0.7L75.3,42.1c-1.1,0.8-1.3,0.4-1.3-1.4
		L74,32.5c0-1-0.4-1.6-1.3-1.6L53,30.9c-1,0-1.3,0.7-1.3,1.7l0.1,24.1c0,1.9,0.3,2.4-0.6,3.4l-8.5,6c-1.5,1-1.3,1-1.3,2.5l0,115.3
		c0,1,0.8,1.8,1.7,1.8h17.5c0,0,0,0,0,0l39.7,0c1,0,1.8-0.8,1.8-1.7v-17.2c0-0.9-0.8-1.7-1.8-1.7l-36.9,0.1c-0.6,0-1.1-0.5-1.1-1
		l-0.3-84.9C61.9,76.5,61.9,76.7,64,75.2"/>
</g>
</svg>