<!-- Generator: Adobe Illustrator 21.0.2, SVG Export Plug-In  -->
<svg version="1.1"
	 xmlns="http://www.w3.org/2000/svg" xmlns:xlink="http://www.w3.org/1999/xlink" xmlns:a="http://ns.adobe.com/AdobeSVGViewerExtensions/3.0/"
	 x="0px" y="0px" width="429px" height="126.7px" viewBox="0 0 429 126.7" style="enable-background:new 0 0 429 126.7;"
	 xml:space="preserve">
<style type="text/css">
	.st0{fill:#FFFFFF;}
	.st1{fill:#c6142d;}
</style>
<defs>
</defs>
<polygon class="st0" points="0.6,0 0,0.6 2.2,2.8 0,4.9 0.6,5.5 2.8,3.4 4.9,5.5 5.5,4.9 3.4,2.8 5.5,0.6 4.9,0 2.8,2.2 "/>
<polygon class="st0" points="30.9,0 30.2,0.6 32.4,2.8 30.2,4.9 30.9,5.5 33,3.4 35.2,5.5 35.8,4.9 33.6,2.8 35.8,0.6 35.2,0 
	33,2.2 "/>
<polygon class="st0" points="61.1,0 60.5,0.6 62.7,2.8 60.5,4.9 61.1,5.5 63.3,3.4 65.4,5.5 66,4.9 63.9,2.8 66,0.6 65.4,0 
	63.3,2.2 "/>
<polygon class="st0" points="91.4,0 90.7,0.6 92.9,2.8 90.7,4.9 91.4,5.5 93.5,3.4 95.7,5.5 96.3,4.9 94.1,2.8 96.3,0.6 95.7,0 
	93.5,2.2 "/>
<polygon class="st0" points="121.6,0 121,0.6 123.2,2.8 121,4.9 121.6,5.5 123.8,3.4 125.9,5.5 126.5,4.9 124.4,2.8 126.5,0.6 
	125.9,0 123.8,2.2 "/>
<polygon class="st1" points="151.9,0 151.2,0.6 153.4,2.8 151.2,4.9 151.9,5.5 154,3.4 156.2,5.5 156.8,4.9 154.6,2.8 156.8,0.6 
	156.2,0 154,2.2 "/>
<polygon class="st1" points="182.1,0 181.5,0.6 183.7,2.8 181.5,4.9 182.1,5.5 184.3,3.4 186.4,5.5 187,4.9 184.9,2.8 187,0.6 
	186.4,0 184.3,2.2 "/>
<polygon class="st1" points="212.4,0 211.7,0.6 213.9,2.8 211.7,4.9 212.4,5.5 214.5,3.4 216.7,5.5 217.3,4.9 215.1,2.8 217.3,0.6 
	216.7,0 214.5,2.2 "/>
<polygon class="st1" points="242.6,0 242,0.6 244.2,2.8 242,4.9 242.6,5.5 244.8,3.4 246.9,5.5 247.5,4.9 245.4,2.8 247.5,0.6 
	246.9,0 244.8,2.2 "/>
<polygon class="st1" points="272.9,0 272.2,0.6 274.4,2.8 272.2,4.9 272.9,5.5 275,3.4 277.2,5.5 277.8,4.9 275.6,2.8 277.8,0.6 
	277.2,0 275,2.2 "/>
<polygon class="st1" points="303.1,0 302.5,0.6 304.7,2.8 302.5,4.9 303.1,5.5 305.3,3.4 307.4,5.5 308,4.9 305.9,2.8 308,0.6 
	307.4,0 305.3,2.2 "/>
<polygon class="st1" points="333.4,0 332.7,0.6 334.9,2.8 332.7,4.9 333.3,5.5 335.5,3.4 337.7,5.5 338.3,4.9 336.1,2.8 338.3,0.6 
	337.7,0 335.5,2.2 "/>
<polygon class="st1" points="363.6,0 363,0.6 365.2,2.8 363,4.9 363.6,5.5 365.8,3.4 367.9,5.5 368.5,4.9 366.4,2.8 368.5,0.6 
	367.9,0 365.8,2.2 "/>
<polygon class="st1" points="393.8,0 393.2,0.6 395.4,2.8 393.2,4.9 393.8,5.5 396,3.4 398.2,5.5 398.8,4.9 396.6,2.8 398.8,0.6 
	398.2,0 396,2.2 "/>
<polygon class="st1" points="424.1,0 423.5,0.6 425.7,2.8 423.5,4.9 424.1,5.5 426.3,3.4 428.4,5.5 429,4.9 426.9,2.8 429,0.6 
	428.4,0 426.3,2.2 "/>
<polygon class="st0" points="0,30.7 2.2,32.9 0,35 0.6,35.7 2.8,33.5 4.9,35.7 5.5,35 3.4,32.9 5.5,30.7 4.9,30.1 2.8,32.3 
	0.6,30.1 "/>
<polygon class="st0" points="35.8,30.7 35.2,30.1 33,32.3 30.9,30.1 30.2,30.7 32.4,32.9 30.2,35.1 30.9,35.7 33,33.5 35.2,35.7 
	35.8,35.1 33.6,32.9 "/>
<polygon class="st0" points="66,30.7 65.4,30.1 63.3,32.3 61.1,30.1 60.5,30.7 62.7,32.9 60.5,35.1 61.1,35.7 63.3,33.5 65.4,35.7 
	66,35.1 63.9,32.9 "/>
<polygon class="st0" points="96.3,30.7 95.7,30.1 93.5,32.3 91.4,30.1 90.7,30.7 92.9,32.9 90.7,35.1 91.4,35.7 93.5,33.5 
	95.7,35.7 96.3,35.1 94.1,32.9 "/>
<polygon class="st0" points="126.5,30.7 125.9,30.1 123.8,32.3 121.6,30.1 121,30.7 123.2,32.9 121,35.1 121.6,35.7 123.8,33.5 
	125.9,35.7 126.5,35.1 124.4,32.9 "/>
<polygon class="st1" points="156.8,30.7 156.2,30.1 154,32.3 151.9,30.1 151.2,30.7 153.4,32.9 151.2,35.1 151.9,35.7 154,33.5 
	156.2,35.7 156.8,35.1 154.6,32.9 "/>
<polygon class="st1" points="187,30.7 186.4,30.1 184.3,32.3 182.1,30.1 181.5,30.7 183.7,32.9 181.5,35.1 182.1,35.7 184.3,33.5 
	186.4,35.7 187,35.1 184.9,32.9 "/>
<polygon class="st1" points="217.3,30.7 216.7,30.1 214.5,32.3 212.4,30.1 211.7,30.7 213.9,32.9 211.7,35.1 212.4,35.7 214.5,33.5 
	216.7,35.7 217.3,35.1 215.1,32.9 "/>
<polygon class="st1" points="247.5,30.7 246.9,30.1 244.8,32.3 242.6,30.1 242,30.7 244.2,32.9 242,35.1 242.6,35.7 244.8,33.5 
	246.9,35.7 247.5,35.1 245.4,32.9 "/>
<polygon class="st1" points="277.8,30.7 277.2,30.1 275,32.3 272.9,30.1 272.2,30.7 274.4,32.9 272.2,35.1 272.9,35.7 275,33.5 
	277.2,35.7 277.8,35.1 275.6,32.9 "/>
<polygon class="st1" points="308,30.7 307.4,30.1 305.3,32.3 303.1,30.1 302.5,30.7 304.7,32.9 302.5,35.1 303.1,35.7 305.3,33.5 
	307.4,35.7 308,35.1 305.9,32.9 "/>
<polygon class="st1" points="338.3,30.7 337.7,30.1 335.5,32.3 333.4,30.1 332.7,30.7 334.9,32.9 332.7,35.1 333.4,35.7 335.5,33.5 
	337.7,35.7 338.3,35.1 336.1,32.9 "/>
<polygon class="st1" points="368.5,30.7 367.9,30.1 365.8,32.3 363.6,30.1 363,30.7 365.2,32.9 363,35.1 363.6,35.7 365.8,33.5 
	367.9,35.7 368.5,35.1 366.4,32.9 "/>
<polygon class="st1" points="398.8,30.7 398.2,30.1 396,32.3 393.8,30.1 393.2,30.7 395.4,32.9 393.2,35.1 393.8,35.7 396,33.5 
	398.2,35.7 398.8,35.1 396.6,32.9 "/>
<polygon class="st1" points="423.5,30.7 425.7,32.9 423.5,35 424.1,35.7 426.3,33.5 428.4,35.7 429,35 426.9,32.9 429,30.7 
	428.4,30.1 426.3,32.3 424.1,30.1 "/>
<polygon class="st0" points="0,60.8 2.2,63 0,65.2 0.6,65.8 2.8,63.6 4.9,65.8 5.5,65.2 3.4,63 5.5,60.9 4.9,60.2 2.8,62.4 
	0.6,60.2 "/>
<polygon class="st0" points="35.8,60.9 35.2,60.3 33,62.4 30.9,60.2 30.2,60.8 32.4,63 30.3,65.2 30.9,65.8 33,63.6 35.2,65.8 
	35.8,65.2 33.6,63 "/>
<polygon class="st0" points="66,60.9 65.4,60.3 63.3,62.4 61.1,60.2 60.5,60.8 62.7,63 60.5,65.2 61.1,65.8 63.3,63.6 65.4,65.8 
	66,65.2 63.9,63 "/>
<polygon class="st0" points="96.3,60.9 95.7,60.3 93.5,62.4 91.4,60.2 90.7,60.8 92.9,63 90.7,65.2 91.4,65.8 93.5,63.6 95.7,65.8 
	96.3,65.2 94.1,63 "/>
<polygon class="st0" points="126.5,60.9 125.9,60.3 123.8,62.4 121.6,60.2 121,60.8 123.2,63 121,65.2 121.6,65.8 123.8,63.6 
	125.9,65.8 126.5,65.2 124.4,63 "/>
<polygon class="st1" points="156.8,60.9 156.2,60.3 154,62.4 151.9,60.2 151.2,60.8 153.4,63 151.2,65.2 151.9,65.8 154,63.6 
	156.2,65.8 156.8,65.2 154.6,63 "/>
<polygon class="st1" points="187,60.9 186.4,60.3 184.3,62.4 182.1,60.2 181.5,60.8 183.7,63 181.5,65.2 182.1,65.8 184.3,63.6 
	186.4,65.8 187,65.2 184.9,63 "/>
<polygon class="st1" points="217.3,60.9 216.7,60.3 214.5,62.4 212.4,60.2 211.7,60.8 213.9,63 211.7,65.2 212.4,65.8 214.5,63.6 
	216.7,65.8 217.3,65.2 215.1,63 "/>
<polygon class="st1" points="247.5,60.9 246.9,60.3 244.8,62.4 242.6,60.2 242,60.8 244.2,63 242,65.2 242.6,65.8 244.8,63.6 
	246.9,65.8 247.5,65.2 245.4,63 "/>
<polygon class="st1" points="277.8,60.9 277.2,60.3 275,62.4 272.9,60.2 272.2,60.8 274.4,63 272.2,65.2 272.9,65.8 275,63.6 
	277.2,65.8 277.8,65.2 275.6,63 "/>
<polygon class="st1" points="308,60.9 307.4,60.3 305.3,62.4 303.1,60.2 302.5,60.8 304.7,63 302.5,65.2 303.1,65.8 305.3,63.6 
	307.4,65.8 308,65.2 305.9,63 "/>
<polygon class="st1" points="338.3,60.9 337.7,60.3 335.5,62.4 333.4,60.2 332.7,60.8 334.9,63 332.7,65.2 333.4,65.8 335.5,63.6 
	337.7,65.8 338.3,65.2 336.1,63 "/>
<polygon class="st1" points="368.5,60.9 367.9,60.3 365.8,62.4 363.6,60.2 363,60.8 365.2,63 363,65.2 363.6,65.8 365.8,63.6 
	367.9,65.8 368.5,65.2 366.4,63 "/>
<polygon class="st1" points="398.8,60.9 398.2,60.3 396,62.4 393.8,60.2 393.2,60.8 395.4,63 393.2,65.2 393.8,65.8 396,63.6 
	398.2,65.8 398.8,65.2 396.6,63 "/>
<polygon class="st1" points="423.5,60.8 425.7,63 423.5,65.2 424.1,65.8 426.3,63.6 428.4,65.8 429,65.2 426.9,63 429,60.9 
	428.4,60.2 426.3,62.4 424.1,60.2 "/>
<polygon class="st0" points="0,91 2.2,93.1 0,95.3 0.6,95.9 2.8,93.7 4.9,95.9 5.5,95.3 3.4,93.1 5.5,91 4.9,90.4 2.8,92.5 
	0.6,90.4 "/>
<polygon class="st0" points="35.8,91 35.2,90.4 33,92.5 30.9,90.4 30.2,91 32.4,93.1 30.3,95.3 30.9,95.9 33,93.7 35.2,95.9 
	35.8,95.3 33.6,93.1 "/>
<polygon class="st0" points="66,91 65.4,90.4 63.3,92.5 61.1,90.4 60.5,91 62.7,93.1 60.5,95.3 61.1,95.9 63.3,93.7 65.4,95.9 
	66,95.3 63.9,93.1 "/>
<polygon class="st0" points="96.3,91 95.7,90.4 93.5,92.5 91.4,90.4 90.7,91 92.9,93.1 90.7,95.3 91.4,95.9 93.5,93.7 95.7,95.9 
	96.3,95.3 94.1,93.1 "/>
<polygon class="st0" points="126.5,91 125.9,90.4 123.8,92.5 121.6,90.4 121,91 123.2,93.1 121,95.3 121.6,95.9 123.8,93.7 
	125.9,95.9 126.5,95.3 124.4,93.1 "/>
<polygon class="st1" points="156.8,91 156.2,90.4 154,92.5 151.9,90.4 151.2,91 153.4,93.1 151.2,95.3 151.9,95.9 154,93.7 
	156.2,95.9 156.8,95.3 154.6,93.1 "/>
<polygon class="st1" points="187,91 186.4,90.4 184.3,92.5 182.1,90.4 181.5,91 183.7,93.1 181.5,95.3 182.1,95.9 184.3,93.7 
	186.4,95.9 187,95.3 184.9,93.1 "/>
<polygon class="st1" points="217.3,91 216.7,90.4 214.5,92.5 212.4,90.4 211.7,91 213.9,93.1 211.7,95.3 212.4,95.9 214.5,93.7 
	216.7,95.9 217.3,95.3 215.1,93.1 "/>
<polygon class="st1" points="247.5,91 246.9,90.4 244.8,92.5 242.6,90.4 242,91 244.2,93.1 242,95.3 242.6,95.9 244.8,93.7 
	246.9,95.9 247.5,95.3 245.4,93.1 "/>
<polygon class="st1" points="277.8,91 277.2,90.4 275,92.5 272.9,90.4 272.2,91 274.4,93.1 272.2,95.3 272.9,95.9 275,93.7 
	277.2,95.9 277.8,95.3 275.6,93.1 "/>
<polygon class="st1" points="308,91 307.4,90.4 305.3,92.5 303.1,90.4 302.5,91 304.7,93.1 302.5,95.3 303.1,95.9 305.3,93.7 
	307.4,95.9 308,95.3 305.9,93.1 "/>
<polygon class="st1" points="338.3,91 337.7,90.4 335.5,92.5 333.4,90.4 332.7,91 334.9,93.1 332.7,95.3 333.4,95.9 335.5,93.7 
	337.7,95.9 338.3,95.3 336.1,93.1 "/>
<polygon class="st1" points="368.5,91 367.9,90.4 365.8,92.5 363.6,90.4 363,91 365.2,93.1 363,95.3 363.6,95.9 365.8,93.7 
	367.9,95.9 368.5,95.3 366.4,93.1 "/>
<polygon class="st1" points="398.8,91 398.2,90.4 396,92.5 393.8,90.4 393.2,91 395.4,93.1 393.2,95.3 393.8,95.9 396,93.7 
	398.2,95.9 398.8,95.3 396.6,93.1 "/>
<polygon class="st1" points="423.5,91 425.7,93.1 423.5,95.3 424.1,95.9 426.3,93.7 428.4,95.9 429,95.3 426.9,93.1 429,91 
	428.4,90.4 426.3,92.5 424.1,90.4 "/>
<polygon class="st0" points="0,121.8 2.2,124 0,126.1 0.6,126.7 2.8,124.6 4.9,126.7 5.5,126.1 3.4,124 5.5,121.8 4.9,121.2 
	2.8,123.4 0.6,121.2 "/>
<polygon class="st0" points="30.2,121.8 32.4,124 30.2,126.1 30.9,126.7 33,124.6 35.2,126.7 35.8,126.1 33.6,124 35.8,121.8 
	35.2,121.2 33,123.4 30.9,121.2 "/>
<polygon class="st0" points="60.5,121.8 62.7,124 60.5,126.1 61.1,126.7 63.3,124.6 65.4,126.7 66,126.1 63.9,124 66,121.8 
	65.4,121.2 63.3,123.4 61.1,121.2 "/>
<polygon class="st0" points="90.7,121.8 92.9,124 90.7,126.1 91.4,126.7 93.5,124.6 95.7,126.7 96.3,126.1 94.1,124 96.3,121.8 
	95.7,121.2 93.5,123.4 91.4,121.2 "/>
<polygon class="st0" points="121,121.8 123.2,124 121,126.1 121.6,126.7 123.8,124.6 125.9,126.7 126.5,126.1 124.4,124 
	126.5,121.8 125.9,121.2 123.8,123.4 121.6,121.2 "/>
<polygon class="st1" points="151.2,121.8 153.4,124 151.2,126.1 151.9,126.7 154,124.6 156.2,126.7 156.8,126.1 154.6,124 
	156.8,121.8 156.2,121.2 154,123.4 151.9,121.2 "/>
<polygon class="st1" points="181.5,121.8 183.7,124 181.5,126.1 182.1,126.7 184.3,124.6 186.4,126.7 187,126.1 184.9,124 
	187,121.8 186.4,121.2 184.3,123.4 182.1,121.2 "/>
<polygon class="st1" points="211.7,121.8 213.9,124 211.7,126.1 212.4,126.7 214.5,124.6 216.7,126.7 217.3,126.1 215.1,124 
	217.3,121.8 216.7,121.2 214.5,123.4 212.4,121.2 "/>
<polygon class="st1" points="242,121.8 244.2,124 242,126.1 242.6,126.7 244.8,124.6 246.9,126.7 247.5,126.1 245.4,124 
	247.5,121.8 246.9,121.2 244.8,123.4 242.6,121.2 "/>
<polygon class="st1" points="272.2,121.8 274.4,124 272.2,126.1 272.9,126.7 275,124.6 277.2,126.7 277.8,126.1 275.6,124 
	277.8,121.8 277.2,121.2 275,123.4 272.9,121.2 "/>
<polygon class="st1" points="302.5,121.8 304.7,124 302.5,126.1 303.1,126.7 305.3,124.6 307.4,126.7 308,126.1 305.9,124 
	308,121.8 307.4,121.2 305.3,123.4 303.1,121.2 "/>
<polygon class="st1" points="332.7,121.8 334.9,124 332.7,126.1 333.4,126.7 335.5,124.6 337.7,126.7 338.3,126.1 336.1,124 
	338.3,121.8 337.7,121.2 335.5,123.4 333.4,121.2 "/>
<polygon class="st1" points="363,121.8 365.2,124 363,126.1 363.6,126.7 365.8,124.6 367.9,126.7 368.5,126.1 366.4,124 
	368.5,121.8 367.9,121.2 365.8,123.4 363.6,121.2 "/>
<polygon class="st1" points="393.2,121.8 395.4,124 393.2,126.1 393.8,126.7 396,124.6 398.2,126.7 398.8,126.1 396.6,124 
	398.8,121.8 398.2,121.2 396,123.4 393.8,121.2 "/>
<polygon class="st1" points="423.5,121.8 425.7,124 423.5,126.1 424.1,126.7 426.3,124.6 428.4,126.7 429,126.1 426.9,124 
	429,121.8 428.4,121.2 426.3,123.4 424.1,121.2 "/>
</svg>