<!-- Generator: Adobe Illustrator 21.0.2, SVG Export Plug-In  -->
<svg version="1.1"
	 xmlns="http://www.w3.org/2000/svg" xmlns:xlink="http://www.w3.org/1999/xlink" xmlns:a="http://ns.adobe.com/AdobeSVGViewerExtensions/3.0/"
	 x="0px" y="0px" width="39.3px" height="37.5px" viewBox="0 0 39.3 37.5" style="enable-background:new 0 0 39.3 37.5;"
	 xml:space="preserve">
<style type="text/css">
	.st0{fill:#615d5b;}
</style>
<defs>
</defs>
<path class="st0" d="M20.6,0.6l5,11.8l12.8,1.1c0.9,0.1,1.3,1.2,0.6,1.8l-9.7,8.4l2.9,12.5c0.2,0.9-0.7,1.6-1.5,1.1l-11-6.6l-11,6.6
	c-0.8,0.5-1.7-0.2-1.5-1.1l2.9-12.5l-9.7-8.4c-0.7-0.6-0.3-1.7,0.6-1.8l12.8-1.1l5-11.8C19.1-0.2,20.2-0.2,20.6,0.6L20.6,0.6z
	 M20.6,0.6"/>
</svg>
