<!-- Generator: Adobe Illustrator 21.0.2, SVG Export Plug-In  -->
<svg version="1.1"
	 xmlns="http://www.w3.org/2000/svg" xmlns:xlink="http://www.w3.org/1999/xlink" xmlns:a="http://ns.adobe.com/AdobeSVGViewerExtensions/3.0/"
	 x="0px" y="0px" width="72.1px" height="85.8px" viewBox="0 0 72.1 85.8" style="enable-background:new 0 0 72.1 85.8;"
	 xml:space="preserve">
<style type="text/css">
	.st0{clip-path:url(#SVGID_2_);fill:#4A4A4A;}
	.st1{clip-path:url(#SVGID_2_);fill:#C9203A;}
	.st2{clip-path:url(#SVGID_4_);fill:#4A4A4A;}
	.st3{clip-path:url(#SVGID_4_);fill:#C9203A;}
</style>
<defs>
</defs>
<g>
	<defs>
		<rect id="SVGID_1_" x="0" width="72.1" height="85.8"/>
	</defs>
	<clipPath id="SVGID_2_">
		<use xlink:href="#SVGID_1_"  style="overflow:visible;"/>
	</clipPath>
	<path class="st0" d="M56.3,0.3L56.8,0C56.6,0.1,56.5,0.2,56.3,0.3"/>
	<path class="st1" d="M11.1,75.4c-0.5,0-0.9-0.4-0.9-0.9v0.9H0.1l0,9.6c0,0.5,0.4,0.9,0.8,0.9h70.3c0.5,0,0.9-0.4,0.9-0.9l0-9.6
		H11.1z M10.2,31.2v1.1c0-0.3,0-0.7,0.2-1.1H10.2z"/>
	<path class="st1" d="M72.1,31.2L72,75.4H61c0.5,0,0.9-0.4,0.9-0.9V32.2c0-0.3,0-0.7-0.2-1.1H72.1z"/>
	<path class="st1" d="M72.1,27v4.2H61.7c-0.1-0.3-0.4-0.6-0.8-0.9L36.5,13.5c0,0,0,0-0.1,0c-0.1-0.1-0.2-0.1-0.4-0.1
		c-0.1,0-0.2,0-0.3,0c-0.1,0-0.2,0.1-0.3,0.2L11.2,30.3c-0.4,0.3-0.7,0.6-0.8,0.9H0L0,27c0-0.7-0.1-1.4,0.6-1.8l4.2-2.8
		c0.4-0.5,0.3-1.1,0.3-1.6V10.1c0-0.5,0.2-0.8,0.7-0.8l9.7,0c0.5,0,0.6,0.3,0.6,0.8v3.1c0,0.8,0.1,1,0.6,0.6L35.5,0.5l0.1-0.1h0
		c0.1-0.1,0.3-0.1,0.4-0.1c0.3,0,0.3,0.1,0.5,0.2l34.9,24.7C72.2,25.7,72.1,26.3,72.1,27"/>
	<polygon class="st1" points="10.2,31.2 10.2,75.4 0.1,75.4 0,31.2 	"/>
</g>
</svg>