<svg id="Слой_1" data-name="Слой 1" xmlns="http://www.w3.org/2000/svg" xmlns:xlink="http://www.w3.org/1999/xlink" viewBox="0 0 100.03 16.9"><defs><style>.cls-1{fill:none;}.cls-2{fill:#ec1c24;}.cls-3{fill:#fff;}.cls-4{fill:#231f20;}.cls-5{clip-path:url(#clip-path);}</style><clipPath id="clip-path" transform="translate(0 0)"><rect class="cls-1" width="100.03" height="16.9"/></clipPath></defs><title>tehnonikol</title><polygon class="cls-2" points="3.38 0 0 3.38 0 15.88 1.02 16.9 13.52 16.9 16.9 13.52 16.9 1.02 15.88 0 3.38 0"/><polygon class="cls-3" points="15.88 0 12.08 3.8 12.08 9.35 8.96 5.07 2.4 5.07 2.4 6.41 4.34 6.41 4.34 11.54 0 15.88 0 16.9 1.02 16.9 5.8 12.12 5.8 6.41 7.73 6.41 7.73 11.83 9.17 11.83 9.17 7.55 12.28 11.83 13.52 11.83 13.52 4.4 16.9 1.02 16.9 0 15.88 0"/><polygon class="cls-4" points="22.3 6.71 20.28 6.71 20.28 5.07 26.2 5.07 26.2 6.71 24.18 6.71 24.18 11.83 22.3 11.83 22.3 6.71"/><polygon class="cls-4" points="27.19 5.07 32.63 5.07 32.63 6.66 29.04 6.66 29.04 7.68 32.29 7.68 32.29 9.16 29.04 9.16 29.04 10.23 32.67 10.23 32.67 11.83 27.19 11.83 27.19 5.07"/><polygon class="cls-4" points="35.76 8.39 33.54 5.07 35.69 5.07 36.89 6.97 38.1 5.07 40.2 5.07 37.98 8.37 40.3 11.83 38.14 11.83 36.85 9.79 35.55 11.83 33.44 11.83 35.76 8.39"/><polygon class="cls-4" points="41.18 5.07 43.05 5.07 43.05 7.6 45.46 7.6 45.46 5.07 47.33 5.07 47.33 11.83 45.46 11.83 45.46 9.26 43.05 9.26 43.05 11.83 41.18 11.83 41.18 5.07"/><g class="cls-5"><path class="cls-4" d="M48.46,8.45A3.64,3.64,0,1,1,52.09,12a3.54,3.54,0,0,1-3.63-3.52m5.37,0a1.76,1.76,0,0,0-1.74-1.83,1.73,1.73,0,0,0-1.71,1.83,1.75,1.75,0,0,0,1.73,1.82,1.73,1.73,0,0,0,1.72-1.82" transform="translate(0 0)"/><polygon class="cls-4" points="56.87 5.07 58.74 5.07 58.74 7.6 61.15 7.6 61.15 5.07 63.02 5.07 63.02 11.83 61.15 11.83 61.15 9.26 58.74 9.26 58.74 11.83 56.87 11.83 56.87 5.07"/><polygon class="cls-4" points="64.48 5.07 66.33 5.07 66.33 8.87 68.95 5.07 70.7 5.07 70.7 11.83 68.84 11.83 68.84 8.02 66.23 11.83 64.48 11.83 64.48 5.07"/><polygon class="cls-4" points="72.16 5.07 74.03 5.07 74.03 7.81 76.35 5.07 78.58 5.07 76.02 7.97 78.66 11.83 76.41 11.83 74.71 9.32 74.03 10.08 74.03 11.83 72.16 11.83 72.16 5.07"/><path class="cls-4" d="M78.68,8.45A3.64,3.64,0,1,1,82.31,12a3.54,3.54,0,0,1-3.63-3.52m5.37,0a1.76,1.76,0,0,0-1.74-1.83A1.73,1.73,0,0,0,80.6,8.45a1.75,1.75,0,0,0,1.73,1.82A1.73,1.73,0,0,0,84,8.45" transform="translate(0 0)"/><path class="cls-4" d="M94.33,5.07H96.2V7.19h1c1.62,0,2.81.77,2.81,2.3S99,11.83,97.32,11.83h-3Zm2.85,5.18c.62,0,1-.28,1-.81s-.37-.78-1-.78h-1v1.59Z" transform="translate(0 0)"/><path class="cls-4" d="M87.62,5.07V8c0,.7-.07,1.71-.53,2.07a1.54,1.54,0,0,1-.8.3V12h.18a3.65,3.65,0,0,0,1.65-.44c1.13-.72,1.27-2.08,1.27-3.62V6.71H91v5.12h1.87V5.07Z" transform="translate(0 0)"/></g></svg>