<!-- Generator: Adobe Illustrator 21.0.2, SVG Export Plug-In  -->
<svg version="1.1"
	 xmlns="http://www.w3.org/2000/svg" xmlns:xlink="http://www.w3.org/1999/xlink" xmlns:a="http://ns.adobe.com/AdobeSVGViewerExtensions/3.0/"
	 x="0px" y="0px" width="43.3px" height="43.3px" viewBox="0 0 43.3 43.3" style="enable-background:new 0 0 43.3 43.3;"
	 xml:space="preserve">
<style type="text/css">
	.st0{fill:#7F7F7F;}
</style>
<defs>
</defs>
<g>
	<path class="st0" d="M23.5,22.3V9.8c0-1.1-0.9-2-2-2c-1.1,0-2,0.9-2,2v13.1c0,0,0,0.1,0,0.1c0,0.6,0.1,1.1,0.6,1.6l6,6
		c0.4,0.4,0.9,0.6,1.4,0.6c0.5,0,1-0.2,1.4-0.6c0.8-0.8,0.8-2.1,0-2.9L23.5,22.3z"/>
	<path class="st0" d="M21.6,0C9.7,0,0,9.7,0,21.6s9.7,21.6,21.6,21.6s21.6-9.7,21.6-21.6S33.6,0,21.6,0z M21.6,39.2
		C11.9,39.2,4,31.3,4,21.6C4,11.9,11.9,4,21.6,4c9.7,0,17.6,7.9,17.6,17.6C39.2,31.3,31.3,39.2,21.6,39.2z"/>
</g>
</svg>