<?xml version="1.0" encoding="utf-8"?>
<!-- Generator: Adobe Illustrator 21.0.2, SVG Export Plug-In . SVG Version: 6.00 Build 0)  -->
<svg version="1.1" id="Слой_1" xmlns="http://www.w3.org/2000/svg" xmlns:xlink="http://www.w3.org/1999/xlink" x="0px" y="0px"
	 viewBox="0 0 656.2 187.3" style="enable-background:new 0 0 656.2 187.3;" xml:space="preserve">
<style type="text/css">
	.st0{clip-path:url(#SVGID_2_);}
	.st1{fill:#13110C;}
	.st2{font-family:'ProximaNova-Regular';}
	.st3{font-size:18px;}
	.st4{clip-path:url(#SVGID_4_);}
	.st5{clip-path:url(#SVGID_6_);fill:#C41730;}
	.st6{clip-path:url(#SVGID_6_);fill:none;stroke:#C41730;stroke-width:4;stroke-miterlimit:10;}
</style>
<g>
	<defs>
		<rect id="SVGID_1_" width="656.2" height="187.3"/>
	</defs>
	<clipPath id="SVGID_2_">
		<use xlink:href="#SVGID_1_"  style="overflow:visible;"/>
	</clipPath>
	<g class="st0">
		<text transform="matrix(1 0 0 1 0 140.4408)" class="st1 st2 st3">ПРОИЗВОДСТВО</text>
	</g>
	<g class="st0">
		<text transform="matrix(1 0 0 1 0 161.4467)" class="st1 st2 st3">МАТЕРИАЛОВ</text>
	</g>
</g>
<text transform="matrix(1 0 0 1 259.1279 140.4408)" class="st1 st2 st3">СИСТЕМЫ</text>
<text transform="matrix(1 0 0 1 259.1279 161.4467)" class="st1 st2 st3">И КОМПЛЕКСНЫЕ</text>
<g>
	<defs>
		<rect id="SVGID_3_" width="656.2" height="187.3"/>
	</defs>
	<clipPath id="SVGID_4_">
		<use xlink:href="#SVGID_3_"  style="overflow:visible;"/>
	</clipPath>
	<g class="st4">
		<text transform="matrix(1 0 0 1 259.1279 182.4525)" class="st1 st2 st3">РЕШЕНИЯ</text>
	</g>
	<g class="st4">
		<text transform="matrix(1 0 0 1 505.2422 140.4584)" class="st1 st2 st3">СТРОИТЕЛЬСТВО</text>
	</g>
</g>
<text transform="matrix(1 0 0 1 505.2422 161.4642)" class="st1 st2 st3">ДОМОВ </text>
<g>
	<defs>
		<rect id="SVGID_5_" width="656.2" height="187.3"/>
	</defs>
	<clipPath id="SVGID_6_">
		<use xlink:href="#SVGID_5_"  style="overflow:visible;"/>
	</clipPath>
	<path class="st5" d="M622.9,44.2L575.3,0.5c-0.7-0.6-1.8-0.6-2.5,0l-47.6,43.7c-0.6,0.5-0.7,1.3-0.5,2c0.3,0.7,1,1.2,1.7,1.2h11
		V103c0,1,0.8,1.8,1.8,1.8h69.4c1,0,1.8-0.8,1.8-1.8V47.4h11c0.8,0,1.4-0.5,1.7-1.2C623.7,45.5,623.5,44.7,622.9,44.2 M573.7,26.8
		c0-0.7,0.5-1.2,1.2-1.2c0.7,0,1.2,0.5,1.2,1.2c0,0.7-0.5,1.2-1.2,1.2C574.3,28.1,573.7,27.5,573.7,26.8 M608.8,43.7
		c-1,0-1.8,0.8-1.8,1.8v55.7h-14.4V83.5l5-5c0.5,0.2,1.1,0.3,1.7,0.3c2.7,0,4.9-2.2,4.9-4.9c0-2.7-2.2-4.9-4.9-4.9
		c-2.7,0-4.9,2.2-4.9,4.9c0,0.7,0.2,1.4,0.5,2.1l-5.4,5.4c-0.3,0.3-0.5,0.8-0.5,1.3v18.5h-4.1V62.4l3.4-3.4c0.6,0.3,1.3,0.4,2,0.4
		c2.7,0,4.9-2.2,4.9-4.9c0-2.7-2.2-4.9-4.9-4.9c-2.7,0-4.9,2.2-4.9,4.9c0,0.6,0.1,1.3,0.4,1.8l-4,4c-0.3,0.3-0.5,0.8-0.5,1.3v39.6
		h-4.3V31.4c1.8-0.7,3.1-2.5,3.1-4.5c0-2.7-2.2-4.9-4.9-4.9c-2.7,0-4.9,2.2-4.9,4.9c0,2.1,1.3,3.8,3.1,4.5v69.8h-4.3V51.8
		c0-0.5-0.2-1-0.5-1.3l-3.7-3.7c0.3-0.7,0.5-1.4,0.5-2.2c0-2.7-2.2-4.9-4.9-4.9c-2.7,0-4.9,2.2-4.9,4.9s2.2,4.9,4.9,4.9
		c0.6,0,1.1-0.1,1.6-0.3l3.3,3.3v48.7h-4.3V72.9c0-0.5-0.2-1-0.5-1.3l-5.4-5.4c0.3-0.6,0.5-1.3,0.5-2.1c0-2.7-2.2-4.9-4.9-4.9
		c-2.7,0-4.9,2.2-4.9,4.9c0,2.7,2.2,4.9,4.9,4.9c0.6,0,1.2-0.1,1.7-0.3l5,5v27.5h-16V45.6c0-1-0.8-1.8-1.8-1.8h-8.1l42.9-39.4
		l42.9,39.4H608.8z M598.1,73.9c0-0.7,0.5-1.2,1.2-1.2c0.7,0,1.2,0.5,1.2,1.2c0,0.7-0.6,1.2-1.2,1.2
		C598.6,75.1,598.1,74.6,598.1,73.9 M588.9,54.5c0-0.7,0.5-1.2,1.2-1.2c0.7,0,1.2,0.5,1.2,1.2c0,0.7-0.5,1.2-1.2,1.2
		C589.5,55.7,588.9,55.2,588.9,54.5 M560.2,45.8c-0.7,0-1.2-0.6-1.2-1.2s0.5-1.2,1.2-1.2c0.7,0,1.2,0.5,1.2,1.2
		S560.9,45.8,560.2,45.8 M550.4,65.3c-0.7,0-1.2-0.5-1.2-1.2c0-0.7,0.5-1.2,1.2-1.2c0.7,0,1.2,0.6,1.2,1.2
		C551.7,64.8,551.1,65.3,550.4,65.3"/>
	<path class="st5" d="M329.4,82.3h-9c-0.8,0-1.5-0.7-1.6-1.5l-0.7-5.6c-1.5-0.5-3-1.1-4.4-1.8l-4.4,3.4c-0.7,0.5-1.6,0.5-2.1-0.2
		l-6.4-6.4c-0.7-0.7-0.7-1.5-0.2-2.1l3.4-4.4c-0.8-1.5-1.3-2.9-1.8-4.4l-5.6-0.7c-0.8-0.2-1.5-0.8-1.5-1.6v-9c0-0.8,0.7-1.5,1.5-1.6
		l5.6-0.7c0.5-1.5,1.1-2.9,1.8-4.4l-3.4-4.4c-0.5-0.7-0.5-1.6,0.2-2.1l6.4-6.4c0.7-0.7,1.5-0.7,2.1-0.2l4.4,3.8
		c1.5-0.8,2.9-1.3,4.4-1.8l0.7-5.6c0.2-0.8,0.8-1.5,1.6-1.5h9c0.8,0,1.5,0.7,1.6,1.5l0.7,5.6c1.5,0.5,2.9,1.1,4.4,1.8l4.4-3.4
		c0.7-0.5,1.6-0.5,2.1,0.2l6.4,6.4c0.7,0.7,0.7,1.5,0.2,2.1l-3.4,4.4c0.8,1.5,1.3,2.9,1.8,4.4l5.6,0.7c0.8,0.2,1.5,0.8,1.5,1.6v9
		c0,0.8-0.7,1.5-1.5,1.6l-5.6,0.7c-0.5,1.5-1.1,2.9-1.8,4.4l3.4,4.4c0.5,0.7,0.5,1.6-0.2,2.1l-6.4,6.4c-0.7,0.7-1.5,0.7-2.1,0.2
		l-4.4-3.4c-1.5,0.8-2.9,1.3-4.4,1.8l-0.7,5.6C330.9,81.6,330.3,82.3,329.4,82.3 M321.9,79h6.1l0.7-5.2c0-0.7,0.5-1.1,1.1-1.3
		c2-0.5,3.9-1.3,5.6-2.3c0.7-0.3,1.3-0.3,1.8,0.2l4.1,3.3l4.3-4.3l-3.3-4.1c-0.5-0.5-0.5-1.3-0.2-1.8c1-1.8,1.8-3.6,2.3-5.6
		c0.2-0.7,0.7-1.1,1.3-1.1l5.2-0.7V50l-5.2-0.7c-0.7,0-1.1-0.5-1.3-1.1c-0.5-2-1.3-3.9-2.3-5.6c-0.3-0.7-0.3-1.3,0.2-1.8l3.3-4.1
		l-4.1-4.8l-4.1,3.3c-0.5,0.5-1.3,0.5-1.8,0.2c-1.8-1-3.6-1.8-5.6-2.3c-0.7-0.2-1.1-0.7-1.1-1.3l-0.7-5.2h-6.1l-0.7,5.2
		c0,0.7-0.5,1.1-1.1,1.3c-2,0.5-3.9,1.3-5.6,2.3c-0.7,0.3-1.3,0.3-1.8-0.2l-4.1-3.3l-4.3,4.3l3.3,4.1c0.5,0.5,0.5,1.3,0.2,1.8
		c-1,1.8-1.8,3.6-2.3,5.6c-0.2,0.7-0.7,1.1-1.3,1.1l-5.2,0.7v6.1l5.2,0.7c0.7,0,1.1,0.5,1.3,1.1c0.5,2,1.3,3.9,2.3,5.6
		c0.3,0.7,0.3,1.3-0.2,1.8l-3.3,4.1l4.3,4.3l4.1-3.3c0.5-0.5,1.3-0.5,1.8-0.2c1.8,1,3.6,1.8,5.6,2.3c0.7,0.2,1.1,0.7,1.1,1.3
		L321.9,79z"/>
	<path class="st5" d="M325,69.9c-9.5,0-17.3-7.8-17.3-17.3s7.8-17.3,17.3-17.3c9.5,0,17.3,7.8,17.3,17.3S334.6,69.9,325,69.9
		 M325,38.5c-7.8,0-14.1,6.3-14.1,14.1s6.3,14.1,14.1,14.1c7.8,0,14.1-6.3,14.1-14.1S332.8,38.5,325,38.5"/>
	<path class="st5" d="M325,59.8c-3.9,0-7-3.1-7-7c0-3.9,3.1-7,7-7c3.9,0,7,3.1,7,7C332.1,56.5,328.8,59.8,325,59.8 M325,48.8
		c-2.1,0-3.8,1.8-3.8,3.8c0,2,1.8,3.8,3.8,3.8c2.1,0,3.8-1.8,3.8-3.8C328.8,50.6,327.1,48.8,325,48.8"/>
	<path class="st5" d="M291.1,94.1c-0.5-0.3-0.8-0.7-1.3-1.1l2.1-2.5c0.3,0.3,0.8,0.7,1.1,1L291.1,94.1z"/>
	<path class="st5" d="M313,103.4c-1-0.2-2-0.3-2.9-0.5l0.7-3.1c1,0.2,1.8,0.3,2.8,0.5L313,103.4z M307.2,102.4c-1-0.3-2-0.5-2.9-0.8
		l1-3.1c0.8,0.3,1.8,0.7,2.6,0.8L307.2,102.4z M301.4,100.3c-1-0.3-1.8-0.8-2.8-1.3l1.5-3c0.8,0.5,1.6,0.8,2.5,1.1L301.4,100.3z
		 M296,97.5c-0.8-0.5-1.6-1.1-2.5-1.6l2-2.6c0.8,0.5,1.5,1,2.3,1.5L296,97.5z"/>
	<polygon class="st5" points="317.8,103.7 316.2,103.7 316.3,100.5 317.8,100.5 	"/>
	<path class="st5" d="M289.8,92.9c-8.7-7.9-13.6-19.2-13.6-30.8h3.3c0,10.8,4.6,21.1,12.6,28.4L289.8,92.9z"/>
	<polygon class="st5" points="274.5,69.2 271.9,67.2 277.5,59.8 284.9,65.4 282.9,68 278.1,64.4 	"/>
	<path class="st5" d="M356.8,14.4c-0.5-0.5-0.8-0.8-1.3-1.1l2.1-2.5c0.5,0.3,0.8,0.7,1.3,1.1L356.8,14.4z"/>
	<path class="st5" d="M353.4,11.6c-0.8-0.5-1.5-1-2.3-1.5l1.6-2.8c0.8,0.5,1.6,1.1,2.5,1.6L353.4,11.6z M348.6,8.7
		c-0.8-0.5-1.6-0.8-2.5-1.1l1.3-2.9c1,0.3,1.8,0.8,2.8,1.3L348.6,8.7z M343.5,6.6c-0.8-0.3-1.8-0.7-2.6-0.8l0.7-3.3
		c1,0.3,2,0.5,3,0.8L343.5,6.6z M338.1,5.1c-1-0.2-1.8-0.3-2.8-0.5l0.3-3.3c1,0.2,2,0.3,2.9,0.5L338.1,5.1z"/>
	<polygon class="st5" points="332.6,4.4 331.1,4.4 331.1,1.1 332.7,1.1 	"/>
	<path class="st5" d="M372.5,42.8h-3.3c0-10.8-4.6-21.1-12.6-28.4l2.1-2.5C367.6,19.8,372.5,31.1,372.5,42.8"/>
	<polygon class="st5" points="371.2,45.1 363.9,39.5 365.8,36.9 370.6,40.5 374.2,35.7 376.8,37.7 	"/>
	<path class="st5" d="M291.1,94.1c-0.5-0.3-0.8-0.7-1.3-1.1l2.1-2.5c0.3,0.3,0.8,0.7,1.1,1L291.1,94.1z"/>
	<path class="st5" d="M313,103.4c-1-0.2-2-0.3-2.9-0.5l0.7-3.1c1,0.2,1.8,0.3,2.8,0.5L313,103.4z M307.2,102.4c-1-0.3-2-0.5-2.9-0.8
		l1-3.1c0.8,0.3,1.8,0.7,2.6,0.8L307.2,102.4z M301.4,100.3c-1-0.3-1.8-0.8-2.8-1.3l1.5-3c0.8,0.5,1.6,0.8,2.5,1.1L301.4,100.3z
		 M296,97.5c-0.8-0.5-1.6-1.1-2.5-1.6l2-2.6c0.8,0.5,1.5,1,2.3,1.5L296,97.5z"/>
	<polygon class="st5" points="317.8,103.7 316.2,103.7 316.3,100.5 317.8,100.5 	"/>
	<path class="st5" d="M289.8,92.9c-8.7-7.9-13.6-19.2-13.6-30.8h3.3c0,10.8,4.6,21.1,12.6,28.4L289.8,92.9z"/>
	<polygon class="st5" points="274.5,69.2 271.9,67.2 277.5,59.8 284.9,65.4 282.9,68 278.1,64.4 	"/>
	<path class="st5" d="M356.8,14.4c-0.5-0.5-0.8-0.8-1.3-1.1l2.1-2.5c0.5,0.3,0.8,0.7,1.3,1.1L356.8,14.4z"/>
	<path class="st5" d="M353.4,11.6c-0.8-0.5-1.5-1-2.3-1.5l1.6-2.8c0.8,0.5,1.6,1.1,2.5,1.6L353.4,11.6z M348.6,8.7
		c-0.8-0.5-1.6-0.8-2.5-1.1l1.3-2.9c1,0.3,1.8,0.8,2.8,1.3L348.6,8.7z M343.5,6.6c-0.8-0.3-1.8-0.7-2.6-0.8l0.7-3.3
		c1,0.3,2,0.5,3,0.8L343.5,6.6z M338.1,5.1c-1-0.2-1.8-0.3-2.8-0.5l0.3-3.3c1,0.2,2,0.3,2.9,0.5L338.1,5.1z"/>
	<polygon class="st5" points="332.6,4.4 331.1,4.4 331.1,1.1 332.7,1.1 	"/>
	<path class="st5" d="M372.5,42.8h-3.3c0-10.8-4.6-21.1-12.6-28.4l2.1-2.5C367.6,19.8,372.5,31.1,372.5,42.8"/>
	<polygon class="st5" points="371.2,45.1 363.9,39.5 365.8,36.9 370.6,40.5 374.2,35.7 376.8,37.7 	"/>
	<path class="st5" d="M285.2,21.3l-2.5-2.1c0.3-0.5,0.7-0.8,1.1-1.3l2.5,2.1C285.8,20.5,285.5,20.8,285.2,21.3"/>
	<path class="st5" d="M276.5,41.5l-3.3-0.3c0.2-1,0.3-2,0.5-3l3.1,0.7C276.8,39.7,276.7,40.6,276.5,41.5 M277.7,36.1l-3.3-0.8
		c0.3-1,0.5-2,0.8-2.9l3.1,1C278.1,34.3,277.8,35.1,277.7,36.1 M279.5,30.6l-3-1.3c0.3-1,0.8-1.8,1.3-2.8l3,1.5
		C280.1,29,279.8,29.8,279.5,30.6 M281.9,25.7l-2.8-1.6c0.5-0.8,1.1-1.6,1.6-2.5l2.6,2C283.1,24.3,282.4,24.9,281.9,25.7"/>
	<polygon class="st5" points="276.3,45.9 273.1,45.9 273.1,44.2 276.3,44.4 	"/>
	<path class="st5" d="M286.3,20l-2.5-2.1c7.9-8.7,19.2-13.6,30.8-13.6v3.3C303.9,7.5,293.5,12.1,286.3,20"/>
	<polygon class="st5" points="311.4,12.9 308.8,11 312.4,6.2 307.6,2.6 309.6,0 317,5.6 	"/>
	<path class="st5" d="M364.8,87l-2.5-2.1c0.3-0.3,0.7-0.8,1-1.1l2.5,2.1C365.7,86.2,365.2,86.5,364.8,87"/>
	<path class="st5" d="M367.8,83.4l-2.6-2c0.5-0.8,1-1.5,1.5-2.3l2.8,1.6C368.9,81.6,368.4,82.6,367.8,83.4 M371.1,78.2l-3-1.5
		c0.5-0.8,0.8-1.6,1.1-2.5l2.9,1.3C371.9,76.4,371.4,77.3,371.1,78.2 M373.4,72.6l-3.1-1c0.3-0.8,0.7-1.8,0.8-2.6l3.3,0.7
		C374,70.6,373.7,71.6,373.4,72.6 M375,66.7l-3.1-0.7c0.2-1,0.3-1.8,0.5-2.8l3.3,0.3C375.3,64.7,375.2,65.7,375,66.7"/>
	<polygon class="st5" points="375.7,60.6 372.4,60.5 372.4,59 375.7,59 	"/>
	<path class="st5" d="M334,100.6v-3.3c10.8,0,21.1-4.6,28.4-12.6l2.5,2.1C357,95.7,345.7,100.6,334,100.6"/>
	<polygon class="st5" points="339.1,104.9 331.7,99.3 337.3,91.9 339.9,93.9 336.3,98.7 341.1,102.3 	"/>
	<path class="st5" d="M285.2,21.3l-2.5-2.1c0.3-0.5,0.7-0.8,1.1-1.3l2.5,2.1C285.8,20.5,285.5,20.8,285.2,21.3"/>
	<path class="st5" d="M276.5,41.5l-3.3-0.3c0.2-1,0.3-2,0.5-3l3.1,0.7C276.8,39.7,276.7,40.6,276.5,41.5 M277.7,36.1l-3.3-0.8
		c0.3-1,0.5-2,0.8-2.9l3.1,1C278.1,34.3,277.8,35.1,277.7,36.1 M279.5,30.6l-3-1.3c0.3-1,0.8-1.8,1.3-2.8l3,1.5
		C280.1,29,279.8,29.8,279.5,30.6 M281.9,25.7l-2.8-1.6c0.5-0.8,1.1-1.6,1.6-2.5l2.6,2C283.1,24.3,282.4,24.9,281.9,25.7"/>
	<polygon class="st5" points="276.3,45.9 273.1,45.9 273.1,44.2 276.3,44.4 	"/>
	<path class="st5" d="M286.3,20l-2.5-2.1c7.9-8.7,19.2-13.6,30.8-13.6v3.3C303.9,7.5,293.5,12.1,286.3,20"/>
	<polygon class="st5" points="311.4,12.9 308.8,11 312.4,6.2 307.6,2.6 309.6,0 317,5.6 	"/>
	<path class="st5" d="M364.8,87l-2.5-2.1c0.3-0.3,0.7-0.8,1-1.1l2.5,2.1C365.7,86.2,365.2,86.5,364.8,87"/>
	<path class="st5" d="M367.8,83.4l-2.6-2c0.5-0.8,1-1.5,1.5-2.3l2.8,1.6C368.9,81.6,368.4,82.6,367.8,83.4 M371.1,78.2l-3-1.5
		c0.5-0.8,0.8-1.6,1.1-2.5l2.9,1.3C371.9,76.4,371.4,77.3,371.1,78.2 M373.4,72.6l-3.1-1c0.3-0.8,0.7-1.8,0.8-2.6l3.3,0.7
		C374,70.6,373.7,71.6,373.4,72.6 M375,66.7l-3.1-0.7c0.2-1,0.3-1.8,0.5-2.8l3.3,0.3C375.3,64.7,375.2,65.7,375,66.7"/>
	<polygon class="st5" points="375.7,60.6 372.4,60.5 372.4,59 375.7,59 	"/>
	<path class="st5" d="M334,100.6v-3.3c10.8,0,21.1-4.6,28.4-12.6l2.5,2.1C357,95.7,345.7,100.6,334,100.6"/>
	<polygon class="st5" points="339.1,104.9 331.7,99.3 337.3,91.9 339.9,93.9 336.3,98.7 341.1,102.3 	"/>
	<rect x="36.8" y="50.6" class="st5" width="3.3" height="3.3"/>
	<rect x="33.5" y="45.6" class="st5" width="3.3" height="3.3"/>
	<rect x="48.3" y="53.9" class="st5" width="3.3" height="3.3"/>
	<rect x="54.9" y="50.6" class="st5" width="3.3" height="3.3"/>
	<path class="st5" d="M102.6,78.5c-5.4,0-9.9,4.4-9.9,9.9c0,5.4,4.4,9.9,9.9,9.9s9.9-4.4,9.9-9.9C112.5,83,108.1,78.5,102.6,78.5
		 M104.3,94.8v-3.1H101v3.1c-1.2-0.3-2.2-0.9-3-1.7l2.7-1.5L99,88.6l-2.6,1.5c-0.2-0.6-0.3-1.1-0.3-1.7c0-0.6,0.1-1.2,0.3-1.7
		l2.6,1.5l1.6-2.9L98,83.8c0.8-0.8,1.9-1.4,3-1.7v3.1h3.3v-3.1c1.2,0.3,2.2,0.9,3,1.7l-2.7,1.5l1.6,2.8l2.6-1.5
		c0.2,0.6,0.3,1.1,0.3,1.7c0,0.6-0.1,1.2-0.3,1.7l-2.6-1.5l-1.6,2.9l2.7,1.5C106.5,93.9,105.5,94.5,104.3,94.8"/>
	<path class="st5" d="M120.7,101.6V72h-3.3v-9.9h-4.9V43.3c1-1.7,1.6-3.7,1.6-5.9c0-4.1-2.1-7.7-5.4-9.7L93.9,11.1
		c-1.4-4.7-5.8-8.2-11-8.2c-4,0-7.6,2.1-9.7,5.3L54.1,26.3c-1.7,1.6-2.7,3.8-2.7,6.2c0,1.7,0.5,3.4,1.4,4.8l-8.9,8.9l2.3,2.3
		l8.8-8.8c1.5,1.1,3.3,1.6,5,1.6c2.1,0,4.2-0.8,5.9-2.3l14.5-13.4c0.5,0.1,1,0.2,1.5,0.2l9.3,10.4c0,0.4-0.1,0.8-0.1,1.2
		c0,2.2,0.6,4.2,1.6,5.9v18.8h-4.9V72h-3.3v29.6H54.9V72h-3.3v-3.3h3.3v-3.3h-3.5c-0.8-3.8-4.1-6.6-8.1-6.6H28.6v6.6h-3.3v3.3h3.3
		V72h-3.3v29.6H22v3.3h3.3h29.6h29.6h36.2h3.3v-3.3H120.7z M31.9,62.1h11.5c2.1,0,4,1.4,4.6,3.3H31.9V62.1z M31.9,68.7h16.5V72H31.9
		V68.7z M28.6,101.6V88.4H45v-3.3H28.6v-9.9h23v9.9h-3.3v3.3h3.3v13.2H28.6z M110.9,37.4c0,4.5-3.7,8.2-8.2,8.2
		c-4.5,0-8.2-3.7-8.2-8.2c0-4.5,3.7-8.2,8.2-8.2C107.2,29.2,110.9,32.9,110.9,37.4 M82.9,6.1c4.5,0,8.2,3.7,8.2,8.2
		c0,4.5-3.7,8.2-8.2,8.2h0c-4.5,0-8.2-3.7-8.2-8.2C74.7,9.8,78.4,6.1,82.9,6.1 M63.7,36.5c-2.1,2-5.4,1.9-7.5-0.1
		c-1-1-1.6-2.4-1.6-3.9c0-1.5,0.6-2.8,1.7-3.8l15-14.3c0,4.2,2.3,7.8,5.6,9.8L63.7,36.5z M86,25.4c4.2-1.2,7.5-4.7,8.2-9.1l8.5,9.6
		c0,0-0.1,0-0.1,0c-4.6,0-8.6,2.7-10.4,6.6L86,25.4z M96.1,46.8c1.9,1.3,4.1,2.1,6.6,2.1c2.4,0,4.7-0.8,6.6-2.1v15.2H96.1V46.8z
		 M91.1,65.4h1.6h19.8h1.6V72h-23V65.4z M87.8,75.3h29.6v26.3H87.8V75.3z"/>
	<line class="st6" x1="152.8" y1="60.6" x2="233" y2="60.6"/>
	<polygon class="st5" points="219.7,77 217,74.1 231.4,60.6 217,47.2 219.7,44.3 237.3,60.6 	"/>
	<line class="st6" x1="406.8" y1="60.6" x2="487" y2="60.6"/>
	<polygon class="st5" points="473.7,77 471,74.1 485.4,60.6 471,47.2 473.7,44.3 491.3,60.6 	"/>
</g>
</svg>
