<!-- Generator: Adobe Illustrator 21.0.2, SVG Export Plug-In  -->
<svg version="1.1"
	 xmlns="http://www.w3.org/2000/svg" xmlns:xlink="http://www.w3.org/1999/xlink" xmlns:a="http://ns.adobe.com/AdobeSVGViewerExtensions/3.0/"
	 x="0px" y="0px" width="39.5px" height="40.4px" viewBox="0 0 39.5 40.4" style="enable-background:new 0 0 39.5 40.4;"
	 xml:space="preserve">
<style type="text/css">
	.st0{fill:#CBCBCB;}
</style>
<defs>
</defs>
<g>
	<path class="st0" d="M39.2,13.7l-7.9-5.6V1.8c0-0.4-0.3-0.8-0.8-0.8H26c-0.4,0-0.8,0.3-0.8,0.8v2L20,0.1c-0.3-0.2-0.6-0.2-0.9,0
		L0.3,13.7C0,14-0.1,14.5,0.1,14.8c0.2,0.3,0.7,0.4,1.1,0.2l4.3-3.1v19.4h-4c-0.4,0-0.8,0.3-0.8,0.8c0,0.4,0.3,0.8,0.8,0.8h12.3
		c-0.2-0.5-0.3-1-0.4-1.5H7V11.1C7,11,7,10.9,7,10.8l12.6-9.1l5.8,4.1c0.1,0.2,0.3,0.3,0.5,0.4l6.6,4.7c0,0.1,0,0.1,0,0.2V17
		c0.5,0.1,1,0.2,1.5,0.4v-5.4l4.3,3c0.1,0.1,0.3,0.1,0.4,0.1c0.2,0,0.5-0.1,0.6-0.3C39.6,14.5,39.5,14,39.2,13.7z M29.7,7.1l-3-2.1
		V2.6h3V7.1z"/>
</g>
<g>
	<path class="st0" d="M29.3,28.9c-0.5,0-0.8-0.4-0.8-0.8v-5.5c0-0.5,0.4-0.8,0.8-0.8c0.5,0,0.8,0.4,0.8,0.8v5.5
		C30.2,28.6,29.8,28.9,29.3,28.9z"/>
	<path class="st0" d="M31.8,31.6c-0.2,0-0.4-0.1-0.6-0.2l-2.5-2.5c-0.3-0.3-0.3-0.9,0-1.2c0.3-0.3,0.9-0.3,1.2,0l2.5,2.5
		c0.3,0.3,0.3,0.9,0,1.2C32.3,31.5,32.1,31.6,31.8,31.6z"/>
	<path class="st0" d="M29.4,36.7c-5,0-9.1-4.1-9.1-9.1c0-5,4.1-9.1,9.1-9.1c5,0,9.1,4.1,9.1,9.1C38.4,32.6,34.4,36.7,29.4,36.7z
		 M29.4,20.2c-4.1,0-7.4,3.3-7.4,7.4c0,4.1,3.3,7.4,7.4,7.4c4.1,0,7.4-3.3,7.4-7.4C36.7,23.5,33.4,20.2,29.4,20.2z"/>
</g>
<path class="st0" d="M16.3,32.1c-0.3,0-0.6-0.2-0.7-0.5c-1.1-3.6-0.4-8.1,1.8-11.5c2.2-3.5,5.7-5.8,9.8-6.4l1.4-0.2l-2.2,3.9
	c-0.2,0.3-0.6,0.5-1,0.3c-0.3-0.2-0.5-0.6-0.3-1l0.7-1.3c-3.1,0.8-5.7,2.7-7.4,5.5c-2,3.1-2.6,7.1-1.7,10.4c0.1,0.4-0.1,0.8-0.5,0.9
	C16.4,32.1,16.3,32.1,16.3,32.1z"/>
<path class="st0" d="M23.5,40.4c-0.1,0-0.2,0-0.3-0.1c-0.7-0.3-1.4-0.7-2-1.2c-0.3-0.2-0.4-0.7-0.2-1c0.2-0.3,0.7-0.4,1-0.2
	c0.6,0.4,1.2,0.8,1.8,1.1c0.3,0.2,0.5,0.6,0.3,0.9C24,40.3,23.7,40.4,23.5,40.4z"/>
<path class="st0" d="M19,37c-0.2,0-0.4-0.1-0.5-0.2c-0.6-0.7-1.1-1.5-1.6-2.3c-0.2-0.3-0.1-0.8,0.3-1c0.3-0.2,0.8-0.1,1,0.3
	c0.4,0.8,0.9,1.5,1.4,2.1c0.3,0.3,0.2,0.7-0.1,1C19.3,36.9,19.1,37,19,37z"/>
<path class="st0" d="M27.3,14.6c-0.1,0-0.2,0-0.3-0.1l-2.7-1.3c-0.4-0.2-0.5-0.6-0.3-0.9c0.2-0.3,0.6-0.5,0.9-0.3l3.7,1.4
	c-0.5,0.5-0.5,0.5-0.7,0.8C27.8,14.5,27.6,14.6,27.3,14.6z"/>
</svg>