<!-- Generator: Adobe Illustrator 21.0.2, SVG Export Plug-In  -->
<svg version="1.1"
	 xmlns="http://www.w3.org/2000/svg" xmlns:xlink="http://www.w3.org/1999/xlink" xmlns:a="http://ns.adobe.com/AdobeSVGViewerExtensions/3.0/"
	 x="0px" y="0px" width="52.1px" height="40.1px" viewBox="0 0 52.1 40.1" style="enable-background:new 0 0 52.1 40.1;"
	 xml:space="preserve">
<style type="text/css">
	.st0{fill:#CBCBCB;}
</style>
<defs>
</defs>
<path class="st0" d="M51.8,27.2L51.8,27.2c-0.8-1.8-2.7-2.8-4.5-2.4c0.2-0.8,0.2-1.6-0.1-2.3c-0.4-0.8-1-1.5-1.8-1.8c0,0,0,0,0,0
	c-0.7-0.3-1.4-0.3-2.1-0.1v-8.3c0,0,0,0,0,0v-1.8l2.3,1.5c0.1,0.1,0.3,0.1,0.5,0.1c0.3,0,0.5-0.1,0.7-0.4c0.3-0.4,0.2-0.9-0.2-1.2
	l-4.6-3.1V0.8c0-0.5-0.4-0.8-0.8-0.8h-5.1C35.3,0,35,0.4,35,0.8v2.1l-2.5-1.6c-0.3-0.2-0.7-0.2-0.9,0l-13.9,9.2
	c-0.4,0.3-0.5,0.8-0.2,1.2c0.3,0.4,0.8,0.5,1.2,0.2l2.3-1.5v4.1l-2.9-1.1c-0.1,0-0.2-0.1-0.4-0.1c-3-1-6.4-0.6-9.2,1.3l-8.2,5.4
	c-0.4,0.3-0.5,0.8-0.2,1.2c0.3,0.4,0.8,0.5,1.2,0.2l8.2-5.4c2.3-1.5,5.2-1.9,7.7-1.1c0.1,0,0.2,0.1,0.3,0.1l15.4,5.9
	c0.5,0.2,0.8,0.5,1,1c0.2,0.5,0.2,1,0,1.4c-0.4,0.9-1.4,1.3-2.2,1l-9.7-3.3c-0.8-0.3-1.6-0.2-2.4,0.1c-0.9,0.4-1.6,1.2-1.9,2.2
	c-0.4,1.7,0.5,3.4,2.1,4L30.9,31c1.2,0.4,2.5,0.4,3.6,0l12.8-4.5c1.1-0.4,2.4,0.2,2.9,1.3l0,0c0.2,0.6,0.2,1.2,0,1.8
	c-0.2,0.6-0.7,1-1.3,1.3l-9.4,3.9c-0.1,0-0.2,0.1-0.2,0.1l-7.1,3c-1.5,0.6-3.2,0.7-4.7,0.2l-17.4-5.7C9,31.9,7.8,32,6.8,32.5
	l-0.7,0.3c-0.4,0.2-0.6,0.7-0.4,1.1c0.2,0.4,0.7,0.6,1.1,0.4L7.5,34c0.7-0.3,1.4-0.3,2.1-0.1L27,39.6c0.9,0.3,1.8,0.4,2.6,0.4
	c1.1,0,2.2-0.2,3.2-0.7l7.4-3.1c0.1,0,0.2-0.1,0.2-0.1l9.1-3.8c1-0.4,1.8-1.2,2.2-2.2C52.2,29.2,52.2,28.2,51.8,27.2z M21,25.8
	l-0.7-0.2c-0.8-0.3-1.2-1.1-1-1.9c0.1-0.5,0.5-0.9,0.9-1.1c0.3-0.1,0.5-0.1,0.8-0.1V25.8z M36.7,1.7h3.4v4.6l-3.4-2.2V1.7z
	 M41.4,12.2L41.4,12.2v14.6l-7.5,2.6c-0.8,0.3-1.7,0.3-2.5,0l-8.8-3.1v-3.4l8.4,2.9c1.6,0.5,3.4-0.2,4.2-1.6c0.2-1,0.3-2,0.2-3
	c0,0,0-0.1,0-0.1c-0.4-0.9-1.1-1.5-2-1.9l-10.8-4.1V9.3L32,3.1l9.4,6.2V12.2z M45.6,24.5l-0.4,1.1l-2,0.7v-3.8h0
	c0.4-0.3,1-0.3,1.5-0.1c0,0,0,0,0,0c0.4,0.2,0.7,0.5,0.9,0.9C45.7,23.6,45.7,24,45.6,24.5z"/>
</svg>