<!-- Generator: Adobe Illustrator 21.0.2, SVG Export Plug-In  -->
<svg version="1.1"
	 xmlns="http://www.w3.org/2000/svg" xmlns:xlink="http://www.w3.org/1999/xlink" xmlns:a="http://ns.adobe.com/AdobeSVGViewerExtensions/3.0/"
	 x="0px" y="0px" width="47.8px" height="45.5px" viewBox="0 0 47.8 45.5" style="enable-background:new 0 0 47.8 45.5;"
	 xml:space="preserve">
<style type="text/css">
	.st0{fill:#CBCBCB;}
</style>
<defs>
</defs>
<g>
	<path class="st0" d="M9.4,22c-0.1,0-0.2,0-0.4-0.1l-8.6-4.6C0.1,17.2,0,16.9,0,16.6c0-0.3,0.2-0.5,0.4-0.7l32-15.9
		c0.2-0.1,0.5-0.1,0.7,0L42,4.7c0.3,0.1,0.4,0.4,0.4,0.7c0,0.3-0.2,0.5-0.4,0.7L9.7,21.9C9.6,21.9,9.5,22,9.4,22z M2.4,16.7l7,3.7
		L40,5.3l-7.2-3.7L2.4,16.7z"/>
	<path class="st0" d="M14.8,45.5c-0.1,0-0.2,0-0.4-0.1l-8.6-4.6c-0.2-0.1-0.4-0.4-0.4-0.7c0-0.3,0.2-0.5,0.4-0.7l32-15.9
		c0.2-0.1,0.5-0.1,0.7,0l8.9,4.6c0.3,0.1,0.4,0.4,0.4,0.7c0,0.3-0.2,0.5-0.4,0.7L15.1,45.4C15,45.4,14.9,45.5,14.8,45.5z M7.8,40.2
		l7,3.7l30.6-15.1l-7.2-3.7L7.8,40.2z"/>
	<path class="st0" d="M9.1,25.9c-0.1,0-0.3,0-0.4-0.1L0.4,21C0.1,20.9,0,20.7,0,20.4v-3.8c0-0.4,0.3-0.8,0.7-0.8
		c0.4,0,0.7,0.3,0.7,0.8V20l7.6,4.3L41,8.5V5.3c0-0.4,0.3-0.8,0.8-0.8c0.4,0,0.8,0.3,0.8,0.8V9c0,0.3-0.2,0.5-0.4,0.7L9.4,25.8
		C9.3,25.8,9.2,25.9,9.1,25.9z"/>
	<path class="st0" d="M9.4,25c-0.4,0-0.8-0.3-0.8-0.8v-3.1c0-0.4,0.3-0.8,0.8-0.8c0.4,0,0.8,0.3,0.8,0.8v3.1
		C10.1,24.7,9.8,25,9.4,25z"/>
	<path class="st0" d="M9.1,29.4c-0.1,0-0.3,0-0.4-0.1l-8.3-4.7C0.1,24.5,0,24.2,0,23.9v-3.8c0-0.4,0.3-0.8,0.7-0.8
		c0.4,0,0.7,0.3,0.7,0.8v3.3l7.6,4.3L41,12V8.9c0-0.4,0.3-0.8,0.8-0.8c0.4,0,0.8,0.3,0.8,0.8v3.6c0,0.3-0.2,0.5-0.4,0.7L9.4,29.3
		C9.3,29.4,9.2,29.4,9.1,29.4z"/>
	<path class="st0" d="M9.4,28.6c-0.4,0-0.8-0.3-0.8-0.8v-3.1c0-0.4,0.3-0.8,0.8-0.8c0.4,0,0.8,0.3,0.8,0.8v3.1
		C10.1,28.3,9.8,28.6,9.4,28.6z"/>
	<path class="st0" d="M9.1,32.9c-0.1,0-0.3,0-0.4-0.1l-8.3-4.7C0.1,28,0,27.8,0,27.5v-3.8C0,23.3,0.3,23,0.8,23
		c0.4,0,0.7,0.3,0.7,0.8V27l7.6,4.3L41,15.6v-3.2c0-0.4,0.3-0.8,0.8-0.8c0.4,0,0.8,0.3,0.8,0.8V16c0,0.3-0.2,0.5-0.4,0.7L9.4,32.9
		C9.3,32.9,9.2,32.9,9.1,32.9z"/>
	<path class="st0" d="M9.4,32.1c-0.4,0-0.8-0.3-0.8-0.8v-3.1c0-0.4,0.3-0.8,0.8-0.8c0.4,0,0.8,0.3,0.8,0.8v3.1
		C10.1,31.8,9.8,32.1,9.4,32.1z"/>
	<path class="st0" d="M31.3,21.8c-0.4,0-0.8-0.3-0.8-0.8V10.6l-7.2-4.4c-0.4-0.2-0.5-0.7-0.3-1c0.2-0.4,0.7-0.5,1-0.3l7.6,4.6
		c0.2,0.1,0.4,0.4,0.4,0.6v10.9C32.1,21.5,31.8,21.8,31.3,21.8z"/>
	<path class="st0" d="M37,34.3c-0.1,0-0.3,0-0.4-0.1L34,32.4c-0.3-0.2-0.4-0.7-0.2-1c0.2-0.3,0.7-0.4,1-0.2l2.7,1.8
		c0.3,0.2,0.4,0.7,0.2,1C37.5,34.2,37.3,34.3,37,34.3z"/>
	<path class="st0" d="M25.5,39.9c-0.1,0-0.3,0-0.4-0.1L22.5,38c-0.3-0.2-0.4-0.7-0.2-1c0.2-0.3,0.7-0.4,1-0.2l2.7,1.8
		c0.3,0.2,0.4,0.7,0.2,1C26,39.7,25.8,39.9,25.5,39.9z"/>
	<path class="st0" d="M9.5,18.8c-0.1,0-0.3,0-0.4-0.1L6.3,17c-0.2-0.1-0.4-0.4-0.4-0.7c0-0.3,0.2-0.5,0.4-0.6l4.5-2.1
		c0.2-0.1,0.5-0.1,0.7,0l2.8,1.6c0.2,0.1,0.4,0.4,0.4,0.7c0,0.3-0.2,0.5-0.4,0.6l-4.4,2.2C9.7,18.8,9.6,18.8,9.5,18.8z M8.3,16.5
		l1.3,0.8l2.8-1.4l-1.3-0.7L8.3,16.5z"/>
</g>
</svg>