<!-- Generator: Adobe Illustrator 21.0.2, SVG Export Plug-In  -->
<svg version="1.1"
	 xmlns="http://www.w3.org/2000/svg" xmlns:xlink="http://www.w3.org/1999/xlink" xmlns:a="http://ns.adobe.com/AdobeSVGViewerExtensions/3.0/"
	 x="0px" y="0px" width="126.5px" height="123.9px" viewBox="0 0 126.5 123.9" style="enable-background:new 0 0 126.5 123.9;"
	 xml:space="preserve">
<style type="text/css">
	.st0{fill:#FFFFFF;}
</style>
<defs>
</defs>
<polygon class="st0" points="2.8,0 0,2.8 0.6,3.4 2.8,1.2 4.9,3.4 5.5,2.8 "/>
<polygon class="st0" points="33,0 30.2,2.8 30.9,3.4 33,1.2 35.2,3.4 35.8,2.8 "/>
<polygon class="st0" points="63.3,0 60.5,2.8 61.1,3.4 63.3,1.2 65.4,3.4 66,2.8 "/>
<polygon class="st0" points="93.5,0 90.7,2.8 91.4,3.4 93.5,1.2 95.7,3.4 96.3,2.8 "/>
<polygon class="st0" points="123.8,0 121,2.8 121.6,3.4 123.8,1.2 125.9,3.4 126.5,2.8 "/>
<polygon class="st0" points="0,32.9 0.6,33.5 2.8,31.3 4.9,33.5 5.5,32.9 2.8,30.1 "/>
<polygon class="st0" points="33,30.1 30.2,32.9 30.9,33.5 33,31.3 35.2,33.5 35.8,32.9 "/>
<polygon class="st0" points="63.3,30.1 60.5,32.9 61.1,33.5 63.3,31.3 65.4,33.5 66,32.9 "/>
<polygon class="st0" points="93.5,30.1 90.7,32.9 91.4,33.5 93.5,31.3 95.7,33.5 96.3,32.9 "/>
<polygon class="st0" points="123.8,30.1 121,32.9 121.6,33.5 123.8,31.3 125.9,33.5 126.5,32.9 "/>
<polygon class="st0" points="0,63 0.6,63.6 2.8,61.5 4.9,63.6 5.5,63 2.8,60.2 "/>
<polygon class="st0" points="33,60.2 30.2,63 30.9,63.6 33,61.5 35.2,63.6 35.8,63 "/>
<polygon class="st0" points="63.3,60.2 60.5,63 61.1,63.6 63.3,61.5 65.4,63.6 66,63 "/>
<polygon class="st0" points="93.5,60.2 90.7,63 91.4,63.6 93.5,61.5 95.7,63.6 96.3,63 "/>
<polygon class="st0" points="123.8,60.2 121,63 121.6,63.6 123.8,61.5 125.9,63.6 126.5,63 "/>
<polygon class="st0" points="0,93.1 0.6,93.7 2.8,91.6 4.9,93.7 5.5,93.1 2.8,90.4 "/>
<polygon class="st0" points="33,90.4 30.2,93.1 30.9,93.7 33,91.6 35.2,93.7 35.8,93.1 "/>
<polygon class="st0" points="63.3,90.4 60.5,93.1 61.1,93.7 63.3,91.6 65.4,93.7 66,93.1 "/>
<polygon class="st0" points="93.5,90.4 90.7,93.1 91.4,93.7 93.5,91.6 95.7,93.7 96.3,93.1 "/>
<polygon class="st0" points="123.8,90.4 121,93.1 121.6,93.7 123.8,91.6 125.9,93.7 126.5,93.1 "/>
<polygon class="st0" points="0,123.2 0.6,123.9 2.8,121.7 4.9,123.9 5.5,123.2 2.8,120.5 "/>
<polygon class="st0" points="30.2,123.2 30.9,123.9 33,121.7 35.2,123.9 35.8,123.2 33,120.5 "/>
<polygon class="st0" points="60.5,123.2 61.1,123.9 63.3,121.7 65.4,123.9 66,123.2 63.3,120.5 "/>
<polygon class="st0" points="90.7,123.2 91.4,123.9 93.5,121.7 95.7,123.9 96.3,123.2 93.5,120.5 "/>
<polygon class="st0" points="121,123.2 121.6,123.9 123.8,121.7 125.9,123.9 126.5,123.2 123.8,120.5 "/>
</svg>