<!-- Generator: Adobe Illustrator 21.0.2, SVG Export Plug-In  -->
<svg version="1.1"
	 xmlns="http://www.w3.org/2000/svg" xmlns:xlink="http://www.w3.org/1999/xlink" xmlns:a="http://ns.adobe.com/AdobeSVGViewerExtensions/3.0/"
	 x="0px" y="0px" width="300px" height="389.3px" viewBox="0 0 300 389.3" style="enable-background:new 0 0 300 389.3;"
	 xml:space="preserve" fill="#000000">
<defs>
</defs>
<g>
	<path d="M259.2,0H40.8C18.3,0,0,18.3,0,40.8v307.6c0,22.5,18.3,40.8,40.8,40.8h218.3c22.5,0,40.8-18.3,40.8-40.8V40.8
		C300,18.3,281.7,0,259.2,0L259.2,0z M283.4,348.5c0,13.4-10.9,24.2-24.2,24.2H40.8c-13.4,0-24.2-10.9-24.2-24.2V40.8
		c0-13.4,10.9-24.2,24.2-24.2h218.3c13.4,0,24.2,10.9,24.2,24.2L283.4,348.5L283.4,348.5z M283.4,348.5"/>
	<path d="M51.8,149h196.5V49.2H51.8V149z M68.3,65.8h163.3v66.6H68.3V65.8z M68.3,65.8"/>
	<rect x="67.2" y="194.6" width="24.8" height="16.6"/>
	<rect x="137.6" y="194.6" width="24.8" height="16.6"/>
	<rect x="207.9" y="194.6" width="24.8" height="16.6"/>
	<rect x="67.2" y="254.1" width="24.8" height="16.6"/>
	<rect x="137.6" y="254.1" width="24.8" height="16.6"/>
	<rect x="207.9" y="254.1" width="24.8" height="16.6"/>
	<rect x="67.2" y="313.6" width="24.8" height="16.6"/>
	<rect x="137.6" y="313.6" width="24.8" height="16.6"/>
	<rect x="207.9" y="313.6" width="24.8" height="16.6"/>
</g>
</svg>