<!-- Generator: Adobe Illustrator 21.0.2, SVG Export Plug-In  -->
<svg version="1.1"
	 xmlns="http://www.w3.org/2000/svg" xmlns:xlink="http://www.w3.org/1999/xlink" xmlns:a="http://ns.adobe.com/AdobeSVGViewerExtensions/3.0/"
	 x="0px" y="0px" width="305.8px" height="162.1px" viewBox="0 0 305.8 162.1" style="enable-background:new 0 0 305.8 162.1;"
	 xml:space="preserve">
<style type="text/css">
	.st0{clip-path:url(#SVGID_2_);fill:#3C3C3C;}
	.st1{clip-path:url(#SVGID_2_);fill:#C02139;}
	.st2{clip-path:url(#SVGID_4_);fill:#3C3C3C;}
	.st3{clip-path:url(#SVGID_4_);fill:#C02139;}
</style>
<defs>
</defs>
<g>
	<defs>
		<rect id="SVGID_1_" width="305.8" height="162.1"/>
	</defs>
	<clipPath id="SVGID_2_">
		<use xlink:href="#SVGID_1_"  style="overflow:visible;"/>
	</clipPath>
	<path class="st0" d="M259,154.6c-1.2,1.3-2.4,2.2-4.4,2.2c-2.9,0-4.9-2.4-4.9-5.5c0-3.1,2-5.5,4.9-5.5c1.7,0,3,0.7,4.1,1.9l4.2-3.3
		c-1.8-2.2-4.3-3.8-8.2-3.8c-6.2,0-10.9,4.7-10.9,10.7c0,6.2,4.7,10.7,10.6,10.7c4.3,0,6.9-1.7,8.8-4.2L259,154.6z"/>
	<polygon class="st0" points="82,146 75.8,146 75.8,141 93.9,141 93.9,146 87.7,146 87.7,161.6 82,161.6 	"/>
	<polygon class="st0" points="139.2,141 144.9,141 144.9,148.7 152.3,148.7 152.3,141 158,141 158,161.6 152.3,161.6 152.3,153.8 
		144.9,153.8 144.9,161.6 139.2,161.6 	"/>
	<polygon class="st0" points="162.4,141 167.8,141 176.2,151.9 176.2,141 181.9,141 181.9,161.6 176.9,161.6 168.1,150.3 
		168.1,161.6 162.4,161.6 	"/>
	<path class="st0" d="M185.2,151.3c0-5.9,4.8-10.7,11.1-10.7c6.4,0,11.1,4.7,11.1,10.7c0,5.9-4.8,10.7-11.1,10.7
		S185.2,157.3,185.2,151.3 M201.6,151.3c0-3-2.1-5.6-5.3-5.6c-3.1,0-5.2,2.5-5.2,5.6c0,3,2.2,5.6,5.3,5.6
		C199.5,156.9,201.6,154.4,201.6,151.3"/>
	<polygon class="st0" points="210.8,141 216.1,141 224.6,151.9 224.6,141 230.2,141 230.2,161.6 225.2,161.6 216.4,150.3 
		216.4,161.6 210.8,161.6 	"/>
	<rect x="234.7" y="141" class="st0" width="5.7" height="20.6"/>
	<path class="st0" d="M264.6,151.3c0-5.9,4.8-10.7,11.1-10.7c6.4,0,11.1,4.7,11.1,10.7c0,5.9-4.8,10.7-11.1,10.7
		C269.3,162.1,264.6,157.3,264.6,151.3 M281,151.3c0-3-2.2-5.6-5.3-5.6c-3.1,0-5.2,2.5-5.2,5.6c0,3,2.1,5.6,5.3,5.6
		C278.9,156.9,281,154.4,281,151.3"/>
	<polygon class="st0" points="290.1,141 295.9,141 295.9,156.6 305.8,156.6 305.8,161.6 290.1,161.6 	"/>
	<path class="st0" d="M131.7,154.6c-1.2,1.3-2.4,2.2-4.4,2.2c-2.9,0-4.9-2.4-4.9-5.5c0-3.1,2-5.5,4.9-5.5c1.7,0,3,0.7,4.1,1.9
		l4.2-3.3c-1.8-2.2-4.3-3.8-8.2-3.8c-6.2,0-10.9,4.7-10.9,10.7c0,6.2,4.7,10.7,10.6,10.7c4.3,0,6.9-1.7,8.8-4.2L131.7,154.6z"/>
	<polygon class="st0" points="96.9,141 113.5,141 113.5,145.9 102.5,145.9 102.5,149 112.4,149 112.4,153.5 102.5,153.5 
		102.5,156.8 113.6,156.8 113.6,161.6 96.9,161.6 	"/>
	<path class="st0" d="M122.4,84.3c0-23.4,18.2-39.4,41.7-39.4c23.6,0,41.7,16,41.7,39.4c0,23.4-18.2,39.4-41.7,39.4
		C140.6,123.8,122.4,107.8,122.4,84.3 M182.5,84.3c0-10.6-7.2-19.1-18.3-19.1c-11.1,0-18.3,8.5-18.3,19.1c0,10.6,7.2,19.1,18.3,19.1
		C175.3,103.4,182.5,95,182.5,84.3"/>
	<polygon class="st0" points="282.1,122.4 282.1,76.6 265.1,122.4 254.8,122.4 237.7,76.6 237.7,122.4 214.7,122.4 214.7,46.2 
		246.5,46.2 259.9,82.7 273.3,46.2 305.2,46.2 305.2,122.4 	"/>
	<path class="st0" d="M73.3,46.2H61L39.2,61.4v61h34.2c23.9,0,41.7-13.8,41.7-38.2C115.1,59.9,97.3,46.2,73.3,46.2 M73.3,102.3h-11
		v-36h11.1c12.3,0,18.3,7.7,18.3,17.9C91.7,93.8,84.8,102.3,73.3,102.3"/>
	<path class="st1" d="M22.7,51.3l37-25.9c0.8-0.6,1.1-1.1,1.1-2.6l0.1-21.3c0-1.4,0-2.2-1.9-0.7L34,18.2c-1.1,0.8-1.3,0.4-1.3-1.4
		l-0.1-8.3c0-1-0.4-1.6-1.3-1.6L11.7,7c-1,0-1.3,0.7-1.3,1.7l0.1,24.1c0,1.9,0.3,2.4-0.6,3.4l-8.5,6c-1.5,1-1.3,1-1.3,2.5l0,115.3
		c0,1,0.8,1.8,1.7,1.8h17.5c0,0,0,0,0,0l39.7,0c1,0,1.8-0.8,1.8-1.7v-17.2c0-0.9-0.8-1.7-1.8-1.7L22,141.1c-0.6,0-1.1-0.5-1.1-1
		l-0.3-84.9C20.6,52.6,20.6,52.7,22.7,51.3"/>
</g>
</svg>