<!-- Generator: Adobe Illustrator 21.0.2, SVG Export Plug-In  -->
<svg version="1.1"
	 xmlns="http://www.w3.org/2000/svg" xmlns:xlink="http://www.w3.org/1999/xlink" xmlns:a="http://ns.adobe.com/AdobeSVGViewerExtensions/3.0/"
	 x="0px" y="0px" width="72.1px" height="85.5px" viewBox="0 0 72.1 85.5" style="enable-background:new 0 0 72.1 85.5;"
	 xml:space="preserve">
<style type="text/css">
	.st0{clip-path:url(#SVGID_2_);fill:#c92031;}
	.st1{clip-path:url(#SVGID_4_);fill:#c92031;}
</style>
<defs>
</defs>
<g>
	<defs>
		<rect id="SVGID_1_" y="0" width="72.1" height="85.4"/>
	</defs>
	<clipPath id="SVGID_2_">
		<use xlink:href="#SVGID_1_"  style="overflow:visible;"/>
	</clipPath>
	<path class="st0" d="M71.4,24.9L36.5,0.2C36.4,0.1,36.3,0,36,0c-0.2,0-0.3,0.1-0.4,0.1h0l-0.1,0.1L16.8,13.5
		c-0.6,0.4-0.6,0.2-0.6-0.7V9.7c0-0.5-0.2-0.8-0.6-0.8l-9.7,0c-0.5,0-0.7,0.3-0.7,0.8v10.7c0,0.5,0.2,1.1-0.3,1.6l-4.2,2.9
		C-0.1,25.3,0,26,0,26.7l0,4.2L0.1,75l0,9.6c0,0.5,0.4,0.8,0.8,0.8h20.6V39.7h29.4v45.7h20.3c0.5,0,0.9-0.4,0.9-0.8l0-9.6h0
		l0.1-44.2v-4.2C72.1,26,72.2,25.3,71.4,24.9"/>
</g>
</svg>