<!-- Generator: Adobe Illustrator 21.0.2, SVG Export Plug-In  -->
<svg version="1.1"
	 xmlns="http://www.w3.org/2000/svg" xmlns:xlink="http://www.w3.org/1999/xlink" xmlns:a="http://ns.adobe.com/AdobeSVGViewerExtensions/3.0/"
	 x="0px" y="0px" width="53.9px" height="49.6px" viewBox="0 0 53.9 49.6" style="enable-background:new 0 0 53.9 49.6;"
	 xml:space="preserve">
<style type="text/css">
	.st0{clip-path:url(#SVGID_2_);fill:none;stroke:#c92031;stroke-width:5;stroke-miterlimit:10;}
	.st1{clip-path:url(#SVGID_2_);fill:none;stroke:#c92031;stroke-width:5.627;stroke-miterlimit:10;}
	.st2{clip-path:url(#SVGID_2_);fill:#c92031;}
	.st3{clip-path:url(#SVGID_4_);fill:none;stroke:#c92031;stroke-width:5;stroke-miterlimit:10;}
	.st4{clip-path:url(#SVGID_4_);fill:none;stroke:#c92031;stroke-width:5.627;stroke-miterlimit:10;}
	.st5{clip-path:url(#SVGID_4_);fill:#c92031;}
</style>
<defs>
</defs>
<g>
	<defs>
		<rect id="SVGID_1_" width="53.9" height="49.6"/>
	</defs>
	<clipPath id="SVGID_2_">
		<use xlink:href="#SVGID_1_"  style="overflow:visible;"/>
	</clipPath>
	<path class="st0" d="M51.4,44.3c0,1.6-1.3,2.8-2.8,2.8H5.3c-1.6,0-2.8-1.3-2.8-2.8V9.7c0-1.6,1.3-2.8,2.8-2.8h43.2
		c1.6,0,2.8,1.3,2.8,2.8V44.3z"/>
	<rect x="2.5" y="17.9" class="st0" width="48.9" height="0"/>
	<line class="st1" x1="12.1" y1="13" x2="12.1" y2="0"/>
	<line class="st1" x1="41.9" y1="13" x2="41.9" y2="0"/>
	<rect x="10.1" y="25.5" class="st2" width="5.8" height="5.8"/>
	<rect x="19.2" y="25.5" class="st2" width="5.8" height="5.8"/>
	<rect x="28.2" y="25.5" class="st2" width="5.8" height="5.8"/>
	<rect x="37.3" y="25.5" class="st2" width="5.8" height="5.8"/>
</g>
</svg>