<!-- Generator: Adobe Illustrator 21.0.2, SVG Export Plug-In  -->
<svg version="1.1"
	 xmlns="http://www.w3.org/2000/svg" xmlns:xlink="http://www.w3.org/1999/xlink" xmlns:a="http://ns.adobe.com/AdobeSVGViewerExtensions/3.0/"
	 x="0px" y="0px" width="95.5px" height="75px" viewBox="0 0 95.5 75" style="enable-background:new 0 0 95.5 75;"
	 xml:space="preserve">
<style type="text/css">
	.st0{clip-path:url(#SVGID_2_);fill:#c92031;}
	.st1{clip-path:url(#SVGID_2_);fill:none;stroke:#c92031;stroke-width:4;stroke-miterlimit:10;}
	.st2{clip-path:url(#SVGID_4_);fill:#c92031;}
	.st3{clip-path:url(#SVGID_4_);fill:none;stroke:#c92031;stroke-width:4;stroke-miterlimit:10;}
</style>
<defs>
</defs>
<g>
	<defs>
		<rect id="SVGID_1_" width="95.5" height="75"/>
	</defs>
	<clipPath id="SVGID_2_">
		<use xlink:href="#SVGID_1_"  style="overflow:visible;"/>
	</clipPath>
	<path class="st0" d="M87.9,2H35.6C32.5,2,30,4.5,30,7.6v7.4c1.4-0.1,2.7-0.3,3.7-0.9V7.6c0-1,0.8-1.9,1.9-1.9h52.3
		c1,0,1.9,0.8,1.9,1.9v37.2c0,1-0.8,1.9-1.9,1.9h-7.6c-1,0-1.9,0.8-1.9,1.9v6.7l-8-8c-0.3-0.3-0.8-0.5-1.3-0.5h-3.4
		c0.2,1.2,0.4,2.5,0.5,3.7h2.1L79.1,61c0.5,0.5,1.3,0.7,2,0.4c0.7-0.3,1.1-1,1.1-1.7v-9.3h5.7c3.1,0,5.6-2.5,5.6-5.6V7.6
		C93.5,4.5,91,2,87.9,2"/>
	<path class="st1" d="M87.9,2H35.6C32.5,2,30,4.5,30,7.6v7.4c1.4-0.1,2.7-0.3,3.7-0.9V7.6c0-1,0.8-1.9,1.9-1.9h52.3
		c1,0,1.9,0.8,1.9,1.9v37.2c0,1-0.8,1.9-1.9,1.9h-7.6c-1,0-1.9,0.8-1.9,1.9v6.7l-8-8c-0.3-0.3-0.8-0.5-1.3-0.5h-3.4
		c0.2,1.2,0.4,2.5,0.5,3.7h2.1L79.1,61c0.5,0.5,1.3,0.7,2,0.4c0.7-0.3,1.1-1,1.1-1.7v-9.3h5.7c3.1,0,5.6-2.5,5.6-5.6V7.6
		C93.5,4.5,91,2,87.9,2z"/>
	<path class="st0" d="M61.8,56.2c0,1-0.8,1.9-1.9,1.9H26.3c-0.5,0-1,0.2-1.3,0.5l-8,8v-6.7c0-1-0.8-1.9-1.9-1.9H7.6
		c-1,0-1.9-0.8-1.9-1.9V19c0-1,0.8-1.9,1.9-1.9h52.3c1,0,1.9,0.8,1.9,1.9V56.2z M59.9,13.4H7.6C4.5,13.4,2,15.9,2,19v37.2
		c0,3.1,2.5,5.6,5.6,5.6h5.7v9.3c0,0.8,0.5,1.4,1.1,1.7c0.7,0.3,1.5,0.1,2-0.4l10.6-10.6h32.8c3.1,0,5.6-2.5,5.6-5.6V19
		C65.5,15.9,63,13.4,59.9,13.4"/>
	<path class="st1" d="M61.8,56.2c0,1-0.8,1.9-1.9,1.9H26.3c-0.5,0-1,0.2-1.3,0.5l-8,8v-6.7c0-1-0.8-1.9-1.9-1.9H7.6
		c-1,0-1.9-0.8-1.9-1.9V19c0-1,0.8-1.9,1.9-1.9h52.3c1,0,1.9,0.8,1.9,1.9V56.2z M59.9,13.4H7.6C4.5,13.4,2,15.9,2,19v37.2
		c0,3.1,2.5,5.6,5.6,5.6h5.7v9.3c0,0.8,0.5,1.4,1.1,1.7c0.7,0.3,1.5,0.1,2-0.4l10.6-10.6h32.8c3.1,0,5.6-2.5,5.6-5.6V19
		C65.5,15.9,63,13.4,59.9,13.4z"/>
</g>
</svg>