<!-- Generator: Adobe Illustrator 21.0.2, SVG Export Plug-In  -->
<svg version="1.1"
	 xmlns="http://www.w3.org/2000/svg" xmlns:xlink="http://www.w3.org/1999/xlink" xmlns:a="http://ns.adobe.com/AdobeSVGViewerExtensions/3.0/"
	 x="0px" y="0px" width="429px" height="123.9px" viewBox="0 0 429 123.9" style="enable-background:new 0 0 429 123.9;"
	 xml:space="preserve">
<style type="text/css">
	.st1{fill:#cbcbcb;}
	.st1{fill:#cbcbcb;}
</style>
<defs>
</defs>
<polygon class="st1" points="2.8,0 0,2.8 0.6,3.4 2.8,1.2 4.9,3.4 5.5,2.8 "/>
<polygon class="st1" points="33,0 30.2,2.8 30.9,3.4 33,1.2 35.2,3.4 35.8,2.8 "/>
<polygon class="st1" points="63.3,0 60.5,2.8 61.1,3.4 63.3,1.2 65.4,3.4 66,2.8 "/>
<polygon class="st1" points="93.5,0 90.7,2.8 91.4,3.4 93.5,1.2 95.7,3.4 96.3,2.8 "/>
<polygon class="st1" points="123.8,0 121,2.8 121.6,3.4 123.8,1.2 125.9,3.4 126.5,2.8 "/>
<polygon class="st1" points="154,0 151.2,2.8 151.9,3.4 154,1.2 156.2,3.4 156.8,2.8 "/>
<polygon class="st1" points="184.3,0 181.5,2.8 182.1,3.4 184.3,1.2 186.4,3.4 187,2.8 "/>
<polygon class="st1" points="214.5,0 211.7,2.8 212.4,3.4 214.5,1.2 216.7,3.4 217.3,2.8 "/>
<polygon class="st1" points="244.8,0 242,2.8 242.6,3.4 244.8,1.2 246.9,3.4 247.5,2.8 "/>
<polygon class="st1" points="275,0 272.2,2.8 272.9,3.4 275,1.2 277.2,3.4 277.8,2.8 "/>
<polygon class="st1" points="305.3,0 302.5,2.8 303.1,3.4 305.3,1.2 307.4,3.4 308,2.8 "/>
<polygon class="st1" points="335.5,0 332.7,2.8 333.3,3.4 335.5,1.2 337.7,3.4 338.3,2.8 "/>
<polygon class="st1" points="365.8,0 363,2.8 363.6,3.4 365.8,1.2 367.9,3.4 368.5,2.8 "/>
<polygon class="st1" points="396,0 393.2,2.8 393.8,3.4 396,1.2 398.2,3.4 398.8,2.8 "/>
<polygon class="st1" points="426.3,0 423.5,2.8 424.1,3.4 426.3,1.2 428.4,3.4 429,2.8 "/>
<polygon class="st1" points="0,32.9 0.6,33.5 2.8,31.3 4.9,33.5 5.5,32.9 2.8,30.1 "/>
<polygon class="st1" points="33,30.1 30.2,32.9 30.9,33.5 33,31.3 35.2,33.5 35.8,32.9 "/>
<polygon class="st1" points="63.3,30.1 60.5,32.9 61.1,33.5 63.3,31.3 65.4,33.5 66,32.9 "/>
<polygon class="st1" points="93.5,30.1 90.7,32.9 91.4,33.5 93.5,31.3 95.7,33.5 96.3,32.9 "/>
<polygon class="st1" points="123.8,30.1 121,32.9 121.6,33.5 123.8,31.3 125.9,33.5 126.5,32.9 "/>
<polygon class="st1" points="154,30.1 151.2,32.9 151.9,33.5 154,31.3 156.2,33.5 156.8,32.9 "/>
<polygon class="st1" points="184.3,30.1 181.5,32.9 182.1,33.5 184.3,31.3 186.4,33.5 187,32.9 "/>
<polygon class="st1" points="214.5,30.1 211.7,32.9 212.4,33.5 214.5,31.3 216.7,33.5 217.3,32.9 "/>
<polygon class="st1" points="244.8,30.1 242,32.9 242.6,33.5 244.8,31.3 246.9,33.5 247.5,32.9 "/>
<polygon class="st1" points="275,30.1 272.2,32.9 272.9,33.5 275,31.3 277.2,33.5 277.8,32.9 "/>
<polygon class="st1" points="305.3,30.1 302.5,32.9 303.1,33.5 305.3,31.3 307.4,33.5 308,32.9 "/>
<polygon class="st1" points="335.5,30.1 332.7,32.9 333.4,33.5 335.5,31.3 337.7,33.5 338.3,32.9 "/>
<polygon class="st1" points="365.8,30.1 363,32.9 363.6,33.5 365.8,31.3 367.9,33.5 368.5,32.9 "/>
<polygon class="st1" points="396,30.1 393.2,32.9 393.8,33.5 396,31.3 398.2,33.5 398.8,32.9 "/>
<polygon class="st1" points="423.5,32.9 424.1,33.5 426.3,31.3 428.4,33.5 429,32.9 426.3,30.1 "/>
<polygon class="st1" points="0,63 0.6,63.6 2.8,61.5 4.9,63.6 5.5,63 2.8,60.2 "/>
<polygon class="st1" points="33,60.2 30.2,63 30.9,63.6 33,61.5 35.2,63.6 35.8,63 "/>
<polygon class="st1" points="63.3,60.2 60.5,63 61.1,63.6 63.3,61.5 65.4,63.6 66,63 "/>
<polygon class="st1" points="93.5,60.2 90.7,63 91.4,63.6 93.5,61.5 95.7,63.6 96.3,63 "/>
<polygon class="st1" points="123.8,60.2 121,63 121.6,63.6 123.8,61.5 125.9,63.6 126.5,63 "/>
<polygon class="st1" points="154,60.2 151.2,63 151.9,63.6 154,61.5 156.2,63.6 156.8,63 "/>
<polygon class="st1" points="184.3,60.2 181.5,63 182.1,63.6 184.3,61.5 186.4,63.6 187,63 "/>
<polygon class="st1" points="214.5,60.2 211.7,63 212.4,63.6 214.5,61.5 216.7,63.6 217.3,63 "/>
<polygon class="st1" points="244.8,60.2 242,63 242.6,63.6 244.8,61.5 246.9,63.6 247.5,63 "/>
<polygon class="st1" points="275,60.2 272.2,63 272.9,63.6 275,61.5 277.2,63.6 277.8,63 "/>
<polygon class="st1" points="305.3,60.2 302.5,63 303.1,63.6 305.3,61.5 307.4,63.6 308,63 "/>
<polygon class="st1" points="335.5,60.2 332.7,63 333.4,63.6 335.5,61.5 337.7,63.6 338.3,63 "/>
<polygon class="st1" points="365.8,60.2 363,63 363.6,63.6 365.8,61.5 367.9,63.6 368.5,63 "/>
<polygon class="st1" points="396,60.2 393.2,63 393.8,63.6 396,61.5 398.2,63.6 398.8,63 "/>
<polygon class="st1" points="423.5,63 424.1,63.6 426.3,61.5 428.4,63.6 429,63 426.3,60.2 "/>
<polygon class="st1" points="0,93.1 0.6,93.7 2.8,91.6 4.9,93.7 5.5,93.1 2.8,90.4 "/>
<polygon class="st1" points="33,90.4 30.2,93.1 30.9,93.7 33,91.6 35.2,93.7 35.8,93.1 "/>
<polygon class="st1" points="63.3,90.4 60.5,93.1 61.1,93.7 63.3,91.6 65.4,93.7 66,93.1 "/>
<polygon class="st1" points="93.5,90.4 90.7,93.1 91.4,93.7 93.5,91.6 95.7,93.7 96.3,93.1 "/>
<polygon class="st1" points="123.8,90.4 121,93.1 121.6,93.7 123.8,91.6 125.9,93.7 126.5,93.1 "/>
<polygon class="st1" points="154,90.4 151.2,93.1 151.9,93.7 154,91.6 156.2,93.7 156.8,93.1 "/>
<polygon class="st1" points="184.3,90.4 181.5,93.1 182.1,93.7 184.3,91.6 186.4,93.7 187,93.1 "/>
<polygon class="st1" points="214.5,90.4 211.7,93.1 212.4,93.7 214.5,91.6 216.7,93.7 217.3,93.1 "/>
<polygon class="st1" points="244.8,90.4 242,93.1 242.6,93.7 244.8,91.6 246.9,93.7 247.5,93.1 "/>
<polygon class="st1" points="275,90.4 272.2,93.1 272.9,93.7 275,91.6 277.2,93.7 277.8,93.1 "/>
<polygon class="st1" points="305.3,90.4 302.5,93.1 303.1,93.7 305.3,91.6 307.4,93.7 308,93.1 "/>
<polygon class="st1" points="335.5,90.4 332.7,93.1 333.4,93.7 335.5,91.6 337.7,93.7 338.3,93.1 "/>
<polygon class="st1" points="365.8,90.4 363,93.1 363.6,93.7 365.8,91.6 367.9,93.7 368.5,93.1 "/>
<polygon class="st1" points="396,90.4 393.2,93.1 393.8,93.7 396,91.6 398.2,93.7 398.8,93.1 "/>
<polygon class="st1" points="423.5,93.1 424.1,93.7 426.3,91.6 428.4,93.7 429,93.1 426.3,90.4 "/>
<polygon class="st1" points="0,123.2 0.6,123.9 2.8,121.7 4.9,123.9 5.5,123.2 2.8,120.5 "/>
<polygon class="st1" points="30.2,123.2 30.9,123.9 33,121.7 35.2,123.9 35.8,123.2 33,120.5 "/>
<polygon class="st1" points="60.5,123.2 61.1,123.9 63.3,121.7 65.4,123.9 66,123.2 63.3,120.5 "/>
<polygon class="st1" points="90.7,123.2 91.4,123.9 93.5,121.7 95.7,123.9 96.3,123.2 93.5,120.5 "/>
<polygon class="st1" points="121,123.2 121.6,123.9 123.8,121.7 125.9,123.9 126.5,123.2 123.8,120.5 "/>
<polygon class="st1" points="151.2,123.2 151.9,123.9 154,121.7 156.2,123.9 156.8,123.2 154,120.5 "/>
<polygon class="st1" points="181.5,123.2 182.1,123.9 184.3,121.7 186.4,123.9 187,123.2 184.3,120.5 "/>
<polygon class="st1" points="211.7,123.2 212.4,123.9 214.5,121.7 216.7,123.9 217.3,123.2 214.5,120.5 "/>
<polygon class="st1" points="242,123.2 242.6,123.9 244.8,121.7 246.9,123.9 247.5,123.2 244.8,120.5 "/>
<polygon class="st1" points="272.2,123.2 272.9,123.9 275,121.7 277.2,123.9 277.8,123.2 275,120.5 "/>
<polygon class="st1" points="302.5,123.2 303.1,123.9 305.3,121.7 307.4,123.9 308,123.2 305.3,120.5 "/>
<polygon class="st1" points="332.7,123.2 333.4,123.9 335.5,121.7 337.7,123.9 338.3,123.2 335.5,120.5 "/>
<polygon class="st1" points="363,123.2 363.6,123.9 365.8,121.7 367.9,123.9 368.5,123.2 365.8,120.5 "/>
<polygon class="st1" points="393.2,123.2 393.8,123.9 396,121.7 398.2,123.9 398.8,123.2 396,120.5 "/>
<polygon class="st1" points="423.5,123.2 424.1,123.9 426.3,121.7 428.4,123.9 429,123.2 426.3,120.5 "/>
</svg>