<!-- Generator: Adobe Illustrator 21.0.2, SVG Export Plug-In  -->
<svg version="1.1"
	 xmlns="http://www.w3.org/2000/svg" xmlns:xlink="http://www.w3.org/1999/xlink" xmlns:a="http://ns.adobe.com/AdobeSVGViewerExtensions/3.0/"
	 x="0px" y="0px" width="32px" height="32px" viewBox="0 0 32 32" style="enable-background:new 0 0 32 32;" xml:space="preserve">
<style type="text/css">
	.st0{clip-path:url(#SVGID_2_);fill:#FFFFFF;}
	.st1{clip-path:url(#SVGID_4_);fill:#FFFFFF;}
</style>
<defs>
</defs>
<g>
	<defs>
		<rect id="SVGID_1_" x="0" y="0" width="32" height="32"/>
	</defs>
	<clipPath id="SVGID_2_">
		<use xlink:href="#SVGID_1_"  style="overflow:visible;"/>
	</clipPath>
	<path class="st0" d="M29.9,8C25.4,0.4,15.7-2.3,8,2.1C0.4,6.6-2.3,16.4,2.1,24c4.4,7.7,14.2,10.3,21.9,5.9
		C31.7,25.4,34.3,15.7,29.9,8 M22.4,27.1c-6.1,3.5-13.9,1.4-17.5-4.7C1.4,16.3,3.5,8.5,9.6,4.9c6.1-3.5,14-1.4,17.5,4.7
		C30.6,15.7,28.5,23.6,22.4,27.1 M21.8,15.4l-8.4-4.9C12.6,10,12,10.4,12,11.3l0,9.7c0,0.9,0.6,1.2,1.4,0.8l8.3-4.8
		C22.5,16.5,22.5,15.8,21.8,15.4"/>
</g>
</svg>