<!-- Generator: Adobe Illustrator 21.0.2, SVG Export Plug-In  -->
<svg version="1.1"
	 xmlns="http://www.w3.org/2000/svg" xmlns:xlink="http://www.w3.org/1999/xlink" xmlns:a="http://ns.adobe.com/AdobeSVGViewerExtensions/3.0/"
	 x="0px" y="0px" width="15.8px" height="15.8px" viewBox="0 0 15.8 15.8" style="enable-background:new 0 0 15.8 15.8;"
	 xml:space="preserve">
<style type="text/css">
	.st0{clip-path:url(#SVGID_2_);fill:#363636;}
	.st1{clip-path:url(#SVGID_4_);fill:#363636;}
</style>
<defs>
</defs>
<g>
	<g>
		<defs>
			<rect id="SVGID_1_" x="0" width="15.8" height="15.8"/>
		</defs>
		<clipPath id="SVGID_2_">
			<use xlink:href="#SVGID_1_"  style="overflow:visible;"/>
		</clipPath>
		<path class="st0" d="M8.2,0.3l2,4.7l5.1,0.4c0.4,0,0.5,0.5,0.2,0.7l-3.8,3.3l1.2,5c0.1,0.3-0.3,0.6-0.6,0.4l-4.4-2.6l-4.4,2.6
			c-0.3,0.2-0.7-0.1-0.6-0.4l1.2-5L0.1,6.1C-0.1,5.9,0,5.4,0.4,5.4L5.4,5l2-4.7C7.6-0.1,8-0.1,8.2,0.3L8.2,0.3z M8.2,0.3"/>
	</g>
</g>
</svg>
