<!-- Generator: Adobe Illustrator 21.0.2, SVG Export Plug-In  -->
<svg version="1.1"
	 xmlns="http://www.w3.org/2000/svg" xmlns:xlink="http://www.w3.org/1999/xlink" xmlns:a="http://ns.adobe.com/AdobeSVGViewerExtensions/3.0/"
	 x="0px" y="0px" width="72.1px" height="85.5px" viewBox="0 0 72.1 85.5" style="enable-background:new 0 0 72.1 85.5;"
	 xml:space="preserve">
<style type="text/css">
	.st0{clip-path:url(#SVGID_2_);fill:#C72038;}
	.st1{clip-path:url(#SVGID_2_);fill:#A7A9AC;}
	.st2{clip-path:url(#SVGID_4_);fill:#C72038;}
	.st3{clip-path:url(#SVGID_4_);fill:#A7A9AC;}
</style>
<defs>
</defs>
<g>
	<defs>
		<rect id="SVGID_1_" x="0" y="0" width="72.1" height="85.4"/>
	</defs>
	<clipPath id="SVGID_2_">
		<use xlink:href="#SVGID_1_"  style="overflow:visible;"/>
	</clipPath>
	<path class="st0" d="M11.1,75c-0.5,0-0.9-0.4-0.9-0.9V75H0.1l0,9.6c0,0.5,0.4,0.9,0.8,0.9h70.3c0.5,0,0.9-0.4,0.9-0.9l0-9.6H11.1z"
		/>
	<path class="st1" d="M10.2,30.9v1.1c0-0.3,0-0.7,0.2-1.1H10.2z"/>
	<path class="st1" d="M72.1,30.9L72,75H61c0.5,0,0.9-0.4,0.9-0.9V31.9c0-0.3,0-0.7-0.2-1.1H72.1z"/>
	<path class="st1" d="M72.1,26.7v4.2H61.7c-0.1-0.3-0.4-0.6-0.8-0.9L36.5,13.2c0,0,0,0-0.1,0c-0.1-0.1-0.2-0.1-0.4-0.1
		c-0.1,0-0.2,0-0.3,0.1c-0.1,0-0.2,0.1-0.3,0.2L11.2,30c-0.4,0.3-0.7,0.6-0.8,0.9H0l0-4.2c0-0.7-0.1-1.3,0.6-1.8L4.8,22
		c0.4-0.5,0.3-1.1,0.3-1.6V9.7c0-0.5,0.2-0.8,0.7-0.8l9.7,0c0.5,0,0.6,0.3,0.6,0.8v3.1c0,0.9,0.1,1,0.6,0.6L35.5,0.2l0.1-0.1h0
		C35.7,0.1,35.9,0,36,0c0.3,0,0.3,0.1,0.5,0.2l34.9,24.7C72.2,25.3,72.1,26,72.1,26.7"/>
	<polygon class="st1" points="10.2,30.9 10.2,75 0.1,75 0,30.9 	"/>
</g>
</svg>