<!-- Generator: Adobe Illustrator 21.0.2, SVG Export Plug-In  -->
<svg version="1.1"
	 xmlns="http://www.w3.org/2000/svg" xmlns:xlink="http://www.w3.org/1999/xlink" xmlns:a="http://ns.adobe.com/AdobeSVGViewerExtensions/3.0/"
	 x="0px" y="0px" width="96.3px" height="126.7px" viewBox="0 0 96.3 126.7" style="enable-background:new 0 0 96.3 126.7;"
	 xml:space="preserve">
<style type="text/css">
	.st0{fill:#BEBDBD;}
</style>
<defs>
</defs>
<polygon class="st0" points="0.6,0 0,0.6 2.2,2.8 0,4.9 0.6,5.5 2.8,3.4 4.9,5.5 5.5,4.9 3.4,2.8 5.5,0.6 4.9,0 2.8,2.2 "/>
<polygon class="st0" points="30.9,0 30.2,0.6 32.4,2.8 30.2,4.9 30.9,5.5 33,3.4 35.2,5.5 35.8,4.9 33.6,2.8 35.8,0.6 35.2,0 
	33,2.2 "/>
<polygon class="st0" points="61.1,0 60.5,0.6 62.7,2.8 60.5,4.9 61.1,5.5 63.3,3.4 65.4,5.5 66,4.9 63.9,2.8 66,0.6 65.4,0 
	63.3,2.2 "/>
<polygon class="st0" points="91.4,0 90.7,0.6 92.9,2.8 90.7,4.9 91.4,5.5 93.5,3.4 95.7,5.5 96.3,4.9 94.1,2.8 96.3,0.6 95.7,0 
	93.5,2.2 "/>
<polygon class="st0" points="0,30.7 2.2,32.9 0,35 0.6,35.7 2.8,33.5 4.9,35.7 5.5,35 3.4,32.9 5.5,30.7 4.9,30.1 2.8,32.3 
	0.6,30.1 "/>
<polygon class="st0" points="35.8,30.7 35.2,30.1 33,32.3 30.9,30.1 30.2,30.7 32.4,32.9 30.2,35.1 30.9,35.7 33,33.5 35.2,35.7 
	35.8,35.1 33.6,32.9 "/>
<polygon class="st0" points="66,30.7 65.4,30.1 63.3,32.3 61.1,30.1 60.5,30.7 62.7,32.9 60.5,35.1 61.1,35.7 63.3,33.5 65.4,35.7 
	66,35.1 63.9,32.9 "/>
<polygon class="st0" points="96.3,30.7 95.7,30.1 93.5,32.3 91.4,30.1 90.7,30.7 92.9,32.9 90.7,35.1 91.4,35.7 93.5,33.5 
	95.7,35.7 96.3,35.1 94.1,32.9 "/>
<polygon class="st0" points="0,60.8 2.2,63 0,65.2 0.6,65.8 2.8,63.6 4.9,65.8 5.5,65.2 3.4,63 5.5,60.9 4.9,60.2 2.8,62.4 
	0.6,60.2 "/>
<polygon class="st0" points="35.8,60.9 35.2,60.3 33,62.4 30.9,60.2 30.2,60.8 32.4,63 30.3,65.2 30.9,65.8 33,63.6 35.2,65.8 
	35.8,65.2 33.6,63 "/>
<polygon class="st0" points="66,60.9 65.4,60.3 63.3,62.4 61.1,60.2 60.5,60.8 62.7,63 60.5,65.2 61.1,65.8 63.3,63.6 65.4,65.8 
	66,65.2 63.9,63 "/>
<polygon class="st0" points="96.3,60.9 95.7,60.3 93.5,62.4 91.4,60.2 90.7,60.8 92.9,63 90.7,65.2 91.4,65.8 93.5,63.6 95.7,65.8 
	96.3,65.2 94.1,63 "/>
<polygon class="st0" points="0,91 2.2,93.1 0,95.3 0.6,95.9 2.8,93.7 4.9,95.9 5.5,95.3 3.4,93.1 5.5,91 4.9,90.4 2.8,92.5 
	0.6,90.4 "/>
<polygon class="st0" points="35.8,91 35.2,90.4 33,92.5 30.9,90.4 30.2,91 32.4,93.1 30.3,95.3 30.9,95.9 33,93.7 35.2,95.9 
	35.8,95.3 33.6,93.1 "/>
<polygon class="st0" points="66,91 65.4,90.4 63.3,92.5 61.1,90.4 60.5,91 62.7,93.1 60.5,95.3 61.1,95.9 63.3,93.7 65.4,95.9 
	66,95.3 63.9,93.1 "/>
<polygon class="st0" points="96.3,91 95.7,90.4 93.5,92.5 91.4,90.4 90.7,91 92.9,93.1 90.7,95.3 91.4,95.9 93.5,93.7 95.7,95.9 
	96.3,95.3 94.1,93.1 "/>
<polygon class="st0" points="0,121.8 2.2,124 0,126.1 0.6,126.7 2.8,124.6 4.9,126.7 5.5,126.1 3.4,124 5.5,121.8 4.9,121.2 
	2.8,123.4 0.6,121.2 "/>
<polygon class="st0" points="30.2,121.8 32.4,124 30.2,126.1 30.9,126.7 33,124.6 35.2,126.7 35.8,126.1 33.6,124 35.8,121.8 
	35.2,121.2 33,123.4 30.9,121.2 "/>
<polygon class="st0" points="60.5,121.8 62.7,124 60.5,126.1 61.1,126.7 63.3,124.6 65.4,126.7 66,126.1 63.9,124 66,121.8 
	65.4,121.2 63.3,123.4 61.1,121.2 "/>
<polygon class="st0" points="90.7,121.8 92.9,124 90.7,126.1 91.4,126.7 93.5,124.6 95.7,126.7 96.3,126.1 94.1,124 96.3,121.8 
	95.7,121.2 93.5,123.4 91.4,121.2 "/>
</svg>